; NON-PLATED HOLES START AT T1
; THROUGH (PLATED) HOLES START AT T100
M48
INCH
T100C0.031497
T101C0.039371
T102C0.038000
T103C0.035000
%
T100
X001987Y013649
X001987Y012665
T101
X006988Y002665
X015987Y002665
X012987Y002665
X005988Y002665
X014987Y010303
X008988Y002665
X004988Y002665
X007988Y002665
X008988Y010303
X010988Y002665
X003989Y002665
X017987Y002665
X004988Y010303
X002989Y003665
X002989Y009303
X003989Y010303
X006988Y010303
X013987Y002665
X015987Y010303
X016987Y002665
X011987Y002665
X011987Y010303
X002989Y010303
X007988Y010303
X013987Y010303
X009988Y010303
X002989Y002665
X009988Y002665
X003989Y009303
X012987Y010303
X010988Y010303
X016987Y010303
X005988Y010303
X014987Y002665
X017987Y010303
X003989Y003665
T102
X020987Y013665
X017987Y012665
X013987Y005665
X020987Y014665
X013987Y006665
X020987Y012665
X017987Y013665
X020987Y015665
X013987Y007665
X013987Y004665
T103
X007987Y013665
X003987Y015665
X003987Y011665
X005987Y011665
X020987Y007665
X006987Y013665
X008987Y013665
X001987Y003665
X020987Y003665
X001987Y007665
X005987Y015665
T00
M30
