G04 MADE WITH FRITZING*
G04 WWW.FRITZING.ORG*
G04 DOUBLE SIDED*
G04 HOLES PLATED*
G04 CONTOUR ON CENTER OF CONTOUR VECTOR*
%FSLAX26Y26*%
%MOIN*%
%ADD10C,0.062992*%
%ADD11C,0.075000*%
%ADD12C,0.078000*%
%ADD13C,0.070868*%
%ADD14R,0.062992X0.062992*%
%ADD15C,0.024000*%
%ADD16R,0.001000X0.001000*%
G04 COPPER1*
%FSLAX26Y26*%
%MOIN*%
D10*
X198703Y1364985D03*
X198703Y1266552D03*
D11*
X898703Y1366551D03*
X798703Y1366551D03*
X698703Y1366551D03*
D12*
X2098700Y1466551D03*
X2098700Y1566551D03*
X2098700Y1366551D03*
X1398700Y466550D03*
X1398700Y566550D03*
X1398700Y666550D03*
X1398700Y766550D03*
X1798700Y1266551D03*
X1798700Y1366551D03*
X2098700Y1266551D03*
D11*
X598703Y1166551D03*
X598703Y1566551D03*
X2098700Y766551D03*
X2098700Y366550D03*
X198703Y366550D03*
X198703Y766550D03*
X398703Y1166551D03*
X398703Y1566551D03*
D13*
X1798700Y1030327D03*
X1698720Y1030327D03*
X1598730Y1030327D03*
X1498740Y1030327D03*
X1398760Y1030327D03*
X1298770Y1030327D03*
X1198790Y1030327D03*
X1098800Y1030327D03*
X998820Y1030327D03*
X898830Y1030327D03*
X798840Y1030327D03*
X698860Y1030327D03*
X598870Y1030327D03*
X498890Y1030327D03*
X398900Y1030327D03*
X298910Y1030327D03*
X398900Y930340D03*
X298910Y930340D03*
X1798700Y266550D03*
X1698720Y266550D03*
X1598730Y266550D03*
X1498740Y266550D03*
X1398760Y266550D03*
X1298770Y266550D03*
X1198790Y266550D03*
X1098800Y266550D03*
X998820Y266550D03*
X898830Y266550D03*
X798840Y266550D03*
X698860Y266550D03*
X598870Y266550D03*
X498890Y266550D03*
X398900Y266550D03*
X298910Y266550D03*
X398900Y366530D03*
X298910Y366530D03*
D14*
X198703Y1364985D03*
D15*
X1497110Y1166370D02*
X697459Y1166364D01*
D02*
X697459Y1166364D02*
X698593Y1349051D01*
D02*
X1498510Y1050014D02*
X1497110Y1166370D01*
D02*
X1797580Y1164211D02*
X1798540Y1050015D01*
D02*
X1701050Y1268338D02*
X896026Y1268333D01*
D02*
X896026Y1268333D02*
X898222Y1349058D01*
D02*
X1798490Y1247552D02*
X1797580Y1164211D01*
D02*
X1698910Y1050015D02*
X1701050Y1268338D01*
D02*
X416203Y1166551D02*
X581203Y1166551D01*
D02*
X1996210Y1364934D02*
X1996210Y1268333D01*
D02*
X1996210Y1268333D02*
X2079700Y1266882D01*
D02*
X599411Y167450D02*
X200126Y167450D01*
D02*
X200126Y167450D02*
X198828Y349050D01*
D02*
X598979Y246870D02*
X599411Y167450D01*
D02*
X198703Y784051D02*
X198703Y1250803D01*
D02*
X2098700Y1466551D02*
X1700480Y1466926D01*
D02*
X1817700Y1366396D02*
X1996220Y1364935D01*
D02*
X1597670Y867212D02*
X1397770Y867207D01*
D02*
X1397770Y867207D02*
X1398530Y785550D01*
D02*
X1598600Y1010645D02*
X1597670Y867212D01*
D02*
X1700480Y364580D02*
X1397770Y364580D01*
D02*
X1397770Y364580D02*
X1398530Y447550D01*
D02*
X1699070Y286230D02*
X1700480Y364580D01*
D02*
X2098700Y1347551D02*
X2098700Y1285551D01*
D02*
X2079700Y1466569D02*
X1700480Y1466926D01*
D02*
X1700480Y1466926D02*
X1698800Y1050016D01*
D02*
X799426Y1568872D02*
X798763Y1384051D01*
D02*
X2079700Y1566585D02*
X799426Y1568872D01*
D02*
X96382Y1364934D02*
X182955Y1364976D01*
D02*
X101231Y467400D02*
X96383Y1364936D01*
D02*
X1398700Y466550D02*
X101237Y467390D01*
D16*
X1663500Y1065350D02*
X1733500Y1065350D01*
X1663500Y1064350D02*
X1733500Y1064350D01*
X1663500Y1063350D02*
X1733500Y1063350D01*
X1663500Y1062350D02*
X1733500Y1062350D01*
X1663500Y1061350D02*
X1733500Y1061350D01*
X1663500Y1060350D02*
X1733500Y1060350D01*
X1663500Y1059350D02*
X1733500Y1059350D01*
X1663500Y1058350D02*
X1733500Y1058350D01*
X1663500Y1057350D02*
X1733500Y1057350D01*
X1663500Y1056350D02*
X1733500Y1056350D01*
X1663500Y1055350D02*
X1733500Y1055350D01*
X1663500Y1054350D02*
X1733500Y1054350D01*
X1663500Y1053350D02*
X1733500Y1053350D01*
X1663500Y1052350D02*
X1733500Y1052350D01*
X1663500Y1051350D02*
X1733500Y1051350D01*
X1663500Y1050350D02*
X1733500Y1050350D01*
X1663500Y1049350D02*
X1691500Y1049350D01*
X1704500Y1049350D02*
X1733500Y1049350D01*
X1663500Y1048350D02*
X1689500Y1048350D01*
X1707500Y1048350D02*
X1733500Y1048350D01*
X1663500Y1047350D02*
X1687500Y1047350D01*
X1709500Y1047350D02*
X1733500Y1047350D01*
X1663500Y1046350D02*
X1685500Y1046350D01*
X1710500Y1046350D02*
X1733500Y1046350D01*
X1663500Y1045350D02*
X1684500Y1045350D01*
X1711500Y1045350D02*
X1733500Y1045350D01*
X1663500Y1044350D02*
X1683500Y1044350D01*
X1712500Y1044350D02*
X1733500Y1044350D01*
X1663500Y1043350D02*
X1682500Y1043350D01*
X1713500Y1043350D02*
X1733500Y1043350D01*
X1663500Y1042350D02*
X1681500Y1042350D01*
X1714500Y1042350D02*
X1733500Y1042350D01*
X1663500Y1041350D02*
X1681500Y1041350D01*
X1715500Y1041350D02*
X1733500Y1041350D01*
X1663500Y1040350D02*
X1680500Y1040350D01*
X1715500Y1040350D02*
X1733500Y1040350D01*
X1663500Y1039350D02*
X1680500Y1039350D01*
X1716500Y1039350D02*
X1733500Y1039350D01*
X1663500Y1038350D02*
X1679500Y1038350D01*
X1716500Y1038350D02*
X1733500Y1038350D01*
X1663500Y1037350D02*
X1679500Y1037350D01*
X1717500Y1037350D02*
X1733500Y1037350D01*
X1663500Y1036350D02*
X1678500Y1036350D01*
X1717500Y1036350D02*
X1733500Y1036350D01*
X1663500Y1035350D02*
X1678500Y1035350D01*
X1717500Y1035350D02*
X1733500Y1035350D01*
X1663500Y1034350D02*
X1678500Y1034350D01*
X1718500Y1034350D02*
X1733500Y1034350D01*
X1663500Y1033350D02*
X1678500Y1033350D01*
X1718500Y1033350D02*
X1733500Y1033350D01*
X1663500Y1032350D02*
X1678500Y1032350D01*
X1718500Y1032350D02*
X1733500Y1032350D01*
X1663500Y1031350D02*
X1678500Y1031350D01*
X1718500Y1031350D02*
X1733500Y1031350D01*
X1663500Y1030350D02*
X1678500Y1030350D01*
X1718500Y1030350D02*
X1733500Y1030350D01*
X1663500Y1029350D02*
X1678500Y1029350D01*
X1718500Y1029350D02*
X1733500Y1029350D01*
X1663500Y1028350D02*
X1678500Y1028350D01*
X1718500Y1028350D02*
X1733500Y1028350D01*
X1663500Y1027350D02*
X1678500Y1027350D01*
X1718500Y1027350D02*
X1733500Y1027350D01*
X1663500Y1026350D02*
X1678500Y1026350D01*
X1717500Y1026350D02*
X1733500Y1026350D01*
X1663500Y1025350D02*
X1678500Y1025350D01*
X1717500Y1025350D02*
X1733500Y1025350D01*
X1663500Y1024350D02*
X1679500Y1024350D01*
X1717500Y1024350D02*
X1733500Y1024350D01*
X1663500Y1023350D02*
X1679500Y1023350D01*
X1716500Y1023350D02*
X1733500Y1023350D01*
X1663500Y1022350D02*
X1679500Y1022350D01*
X1716500Y1022350D02*
X1733500Y1022350D01*
X1663500Y1021350D02*
X1680500Y1021350D01*
X1715500Y1021350D02*
X1733500Y1021350D01*
X1663500Y1020350D02*
X1681500Y1020350D01*
X1715500Y1020350D02*
X1733500Y1020350D01*
X1663500Y1019350D02*
X1681500Y1019350D01*
X1714500Y1019350D02*
X1733500Y1019350D01*
X1663500Y1018350D02*
X1682500Y1018350D01*
X1713500Y1018350D02*
X1733500Y1018350D01*
X1663500Y1017350D02*
X1683500Y1017350D01*
X1713500Y1017350D02*
X1733500Y1017350D01*
X1663500Y1016350D02*
X1684500Y1016350D01*
X1712500Y1016350D02*
X1733500Y1016350D01*
X1663500Y1015350D02*
X1685500Y1015350D01*
X1710500Y1015350D02*
X1733500Y1015350D01*
X1663500Y1014350D02*
X1686500Y1014350D01*
X1709500Y1014350D02*
X1733500Y1014350D01*
X1663500Y1013350D02*
X1688500Y1013350D01*
X1707500Y1013350D02*
X1733500Y1013350D01*
X1663500Y1012350D02*
X1690500Y1012350D01*
X1705500Y1012350D02*
X1733500Y1012350D01*
X1663500Y1011350D02*
X1694500Y1011350D01*
X1702500Y1011350D02*
X1733500Y1011350D01*
X1663500Y1010350D02*
X1733500Y1010350D01*
X1663500Y1009350D02*
X1733500Y1009350D01*
X1663500Y1008350D02*
X1733500Y1008350D01*
X1663500Y1007350D02*
X1733500Y1007350D01*
X1663500Y1006350D02*
X1733500Y1006350D01*
X1663500Y1005350D02*
X1733500Y1005350D01*
X1663500Y1004350D02*
X1733500Y1004350D01*
X1663500Y1003350D02*
X1733500Y1003350D01*
X1663500Y1002350D02*
X1733500Y1002350D01*
X1663500Y1001350D02*
X1733500Y1001350D01*
X1663500Y1000350D02*
X1733500Y1000350D01*
X1663500Y999350D02*
X1733500Y999350D01*
X1663500Y998350D02*
X1733500Y998350D01*
X1663500Y997350D02*
X1733500Y997350D01*
X1663500Y996350D02*
X1733500Y996350D01*
X1663500Y995350D02*
X1732500Y995350D01*
X1663500Y302350D02*
X1733500Y302350D01*
X1663500Y301350D02*
X1733500Y301350D01*
X1663500Y300350D02*
X1733500Y300350D01*
X1663500Y299350D02*
X1733500Y299350D01*
X1663500Y298350D02*
X1733500Y298350D01*
X1663500Y297350D02*
X1733500Y297350D01*
X1663500Y296350D02*
X1733500Y296350D01*
X1663500Y295350D02*
X1733500Y295350D01*
X1663500Y294350D02*
X1733500Y294350D01*
X1663500Y293350D02*
X1733500Y293350D01*
X1663500Y292350D02*
X1733500Y292350D01*
X1663500Y291350D02*
X1733500Y291350D01*
X1663500Y290350D02*
X1733500Y290350D01*
X1663500Y289350D02*
X1733500Y289350D01*
X1663500Y288350D02*
X1733500Y288350D01*
X1663500Y287350D02*
X1733500Y287350D01*
X1663500Y286350D02*
X1693500Y286350D01*
X1703500Y286350D02*
X1733500Y286350D01*
X1663500Y285350D02*
X1690500Y285350D01*
X1706500Y285350D02*
X1733500Y285350D01*
X1663500Y284350D02*
X1688500Y284350D01*
X1708500Y284350D02*
X1733500Y284350D01*
X1663500Y283350D02*
X1686500Y283350D01*
X1709500Y283350D02*
X1733500Y283350D01*
X1663500Y282350D02*
X1685500Y282350D01*
X1711500Y282350D02*
X1733500Y282350D01*
X1663500Y281350D02*
X1684500Y281350D01*
X1712500Y281350D02*
X1733500Y281350D01*
X1663500Y280350D02*
X1683500Y280350D01*
X1713500Y280350D02*
X1733500Y280350D01*
X1663500Y279350D02*
X1682500Y279350D01*
X1714500Y279350D02*
X1733500Y279350D01*
X1663500Y278350D02*
X1681500Y278350D01*
X1714500Y278350D02*
X1733500Y278350D01*
X1663500Y277350D02*
X1680500Y277350D01*
X1715500Y277350D02*
X1733500Y277350D01*
X1663500Y276350D02*
X1680500Y276350D01*
X1716500Y276350D02*
X1733500Y276350D01*
X1663500Y275350D02*
X1679500Y275350D01*
X1716500Y275350D02*
X1733500Y275350D01*
X1663500Y274350D02*
X1679500Y274350D01*
X1717500Y274350D02*
X1733500Y274350D01*
X1663500Y273350D02*
X1679500Y273350D01*
X1717500Y273350D02*
X1733500Y273350D01*
X1663500Y272350D02*
X1678500Y272350D01*
X1717500Y272350D02*
X1733500Y272350D01*
X1663500Y271350D02*
X1678500Y271350D01*
X1717500Y271350D02*
X1733500Y271350D01*
X1663500Y270350D02*
X1678500Y270350D01*
X1718500Y270350D02*
X1733500Y270350D01*
X1663500Y269350D02*
X1678500Y269350D01*
X1718500Y269350D02*
X1733500Y269350D01*
X1663500Y268350D02*
X1678500Y268350D01*
X1718500Y268350D02*
X1733500Y268350D01*
X1663500Y267350D02*
X1678500Y267350D01*
X1718500Y267350D02*
X1733500Y267350D01*
X1663500Y266350D02*
X1678500Y266350D01*
X1718500Y266350D02*
X1733500Y266350D01*
X1663500Y265350D02*
X1678500Y265350D01*
X1718500Y265350D02*
X1733500Y265350D01*
X1663500Y264350D02*
X1678500Y264350D01*
X1718500Y264350D02*
X1733500Y264350D01*
X1663500Y263350D02*
X1678500Y263350D01*
X1717500Y263350D02*
X1733500Y263350D01*
X1663500Y262350D02*
X1678500Y262350D01*
X1717500Y262350D02*
X1733500Y262350D01*
X1663500Y261350D02*
X1679500Y261350D01*
X1717500Y261350D02*
X1733500Y261350D01*
X1663500Y260350D02*
X1679500Y260350D01*
X1717500Y260350D02*
X1733500Y260350D01*
X1663500Y259350D02*
X1679500Y259350D01*
X1716500Y259350D02*
X1733500Y259350D01*
X1663500Y258350D02*
X1680500Y258350D01*
X1716500Y258350D02*
X1733500Y258350D01*
X1663500Y257350D02*
X1680500Y257350D01*
X1715500Y257350D02*
X1733500Y257350D01*
X1663500Y256350D02*
X1681500Y256350D01*
X1715500Y256350D02*
X1733500Y256350D01*
X1663500Y255350D02*
X1682500Y255350D01*
X1714500Y255350D02*
X1733500Y255350D01*
X1663500Y254350D02*
X1682500Y254350D01*
X1713500Y254350D02*
X1733500Y254350D01*
X1663500Y253350D02*
X1683500Y253350D01*
X1712500Y253350D02*
X1733500Y253350D01*
X1663500Y252350D02*
X1685500Y252350D01*
X1711500Y252350D02*
X1733500Y252350D01*
X1663500Y251350D02*
X1686500Y251350D01*
X1710500Y251350D02*
X1733500Y251350D01*
X1663500Y250350D02*
X1687500Y250350D01*
X1708500Y250350D02*
X1733500Y250350D01*
X1663500Y249350D02*
X1689500Y249350D01*
X1706500Y249350D02*
X1733500Y249350D01*
X1663500Y248350D02*
X1692500Y248350D01*
X1703500Y248350D02*
X1733500Y248350D01*
X1663500Y247350D02*
X1733500Y247350D01*
X1663500Y246350D02*
X1733500Y246350D01*
X1663500Y245350D02*
X1733500Y245350D01*
X1663500Y244350D02*
X1733500Y244350D01*
X1663500Y243350D02*
X1733500Y243350D01*
X1663500Y242350D02*
X1733500Y242350D01*
X1663500Y241350D02*
X1733500Y241350D01*
X1663500Y240350D02*
X1733500Y240350D01*
X1663500Y239350D02*
X1733500Y239350D01*
X1663500Y238350D02*
X1733500Y238350D01*
X1663500Y237350D02*
X1733500Y237350D01*
X1663500Y236350D02*
X1733500Y236350D01*
X1663500Y235350D02*
X1733500Y235350D01*
X1663500Y234350D02*
X1733500Y234350D01*
X1663500Y233350D02*
X1733500Y233350D01*
X1663500Y232350D02*
X1733500Y232350D01*
D02*
G04 End of Copper1*
M02*