G04 MADE WITH FRITZING*
G04 WWW.FRITZING.ORG*
G04 DOUBLE SIDED*
G04 HOLES PLATED*
G04 CONTOUR ON CENTER OF CONTOUR VECTOR*
%FSLAX26Y26*%
%MOIN*%
%ADD10C,0.026247X0.0214745*%
%ADD11R,2.305690X1.723850X2.289690X1.707850*%
%ADD12C,0.008000*%
%ADD13C,0.004772*%
%ADD14R,0.001000X0.001000*%
G04 SILK0*
%FSLAX26Y26*%
%MOIN*%
D10*
X1567140Y1469605D03*
X1481240Y1469605D03*
X1395340Y1469605D03*
X1309450Y1469605D03*
X1223550Y1469605D03*
X1137650Y1469605D03*
D12*
X4000Y1719850D02*
X2301690Y1719850D01*
X2301690Y4000D01*
X4000Y4000D01*
X4000Y1719850D01*
D02*
D13*
X1567140Y1426656D02*
X1567140Y1381321D01*
D02*
X1481240Y1426656D02*
X1481240Y1381321D01*
D02*
X1395340Y1426656D02*
X1395340Y1381321D01*
D02*
X1309450Y1426656D02*
X1309450Y1381321D01*
D02*
X1223550Y1426656D02*
X1223550Y1381321D01*
D02*
X1137650Y1426656D02*
X1137650Y1381321D01*
D14*
X1333500Y1690350D02*
X1335500Y1690350D01*
X1352500Y1690350D02*
X1354500Y1690350D01*
X1367500Y1690350D02*
X1370500Y1690350D01*
X1333500Y1689350D02*
X1335500Y1689350D01*
X1352500Y1689350D02*
X1355500Y1689350D01*
X1367500Y1689350D02*
X1370500Y1689350D01*
X1333500Y1688350D02*
X1335500Y1688350D01*
X1352500Y1688350D02*
X1355500Y1688350D01*
X1366500Y1688350D02*
X1370500Y1688350D01*
X1333500Y1687350D02*
X1335500Y1687350D01*
X1352500Y1687350D02*
X1356500Y1687350D01*
X1366500Y1687350D02*
X1370500Y1687350D01*
X1333500Y1686350D02*
X1335500Y1686350D01*
X1352500Y1686350D02*
X1356500Y1686350D01*
X1365500Y1686350D02*
X1370500Y1686350D01*
X1321500Y1685350D02*
X1326500Y1685350D01*
X1333500Y1685350D02*
X1335500Y1685350D01*
X1340500Y1685350D02*
X1346500Y1685350D01*
X1352500Y1685350D02*
X1356500Y1685350D01*
X1365500Y1685350D02*
X1370500Y1685350D01*
X1320500Y1684350D02*
X1328500Y1684350D01*
X1333500Y1684350D02*
X1335500Y1684350D01*
X1339500Y1684350D02*
X1347500Y1684350D01*
X1352500Y1684350D02*
X1357500Y1684350D01*
X1365500Y1684350D02*
X1366500Y1684350D01*
X1368500Y1684350D02*
X1370500Y1684350D01*
X1319500Y1683350D02*
X1321500Y1683350D01*
X1326500Y1683350D02*
X1328500Y1683350D01*
X1333500Y1683350D02*
X1335500Y1683350D01*
X1339500Y1683350D02*
X1341500Y1683350D01*
X1346500Y1683350D02*
X1348500Y1683350D01*
X1352500Y1683350D02*
X1354500Y1683350D01*
X1356500Y1683350D02*
X1357500Y1683350D01*
X1364500Y1683350D02*
X1366500Y1683350D01*
X1368500Y1683350D02*
X1370500Y1683350D01*
X1319500Y1682350D02*
X1320500Y1682350D01*
X1327500Y1682350D02*
X1329500Y1682350D01*
X1333500Y1682350D02*
X1335500Y1682350D01*
X1338500Y1682350D02*
X1340500Y1682350D01*
X1346500Y1682350D02*
X1348500Y1682350D01*
X1352500Y1682350D02*
X1354500Y1682350D01*
X1356500Y1682350D02*
X1358500Y1682350D01*
X1364500Y1682350D02*
X1365500Y1682350D01*
X1368500Y1682350D02*
X1370500Y1682350D01*
X1318500Y1681350D02*
X1320500Y1681350D01*
X1327500Y1681350D02*
X1329500Y1681350D01*
X1333500Y1681350D02*
X1335500Y1681350D01*
X1338500Y1681350D02*
X1340500Y1681350D01*
X1352500Y1681350D02*
X1354500Y1681350D01*
X1357500Y1681350D02*
X1358500Y1681350D01*
X1363500Y1681350D02*
X1365500Y1681350D01*
X1368500Y1681350D02*
X1370500Y1681350D01*
X1318500Y1680350D02*
X1329500Y1680350D01*
X1333500Y1680350D02*
X1335500Y1680350D01*
X1338500Y1680350D02*
X1343500Y1680350D01*
X1352500Y1680350D02*
X1354500Y1680350D01*
X1357500Y1680350D02*
X1358500Y1680350D01*
X1363500Y1680350D02*
X1365500Y1680350D01*
X1368500Y1680350D02*
X1370500Y1680350D01*
X1318500Y1679350D02*
X1329500Y1679350D01*
X1333500Y1679350D02*
X1335500Y1679350D01*
X1338500Y1679350D02*
X1347500Y1679350D01*
X1352500Y1679350D02*
X1354500Y1679350D01*
X1357500Y1679350D02*
X1359500Y1679350D01*
X1363500Y1679350D02*
X1364500Y1679350D01*
X1368500Y1679350D02*
X1370500Y1679350D01*
X1327500Y1678350D02*
X1329500Y1678350D01*
X1333500Y1678350D02*
X1335500Y1678350D01*
X1338500Y1678350D02*
X1340500Y1678350D01*
X1344500Y1678350D02*
X1348500Y1678350D01*
X1352500Y1678350D02*
X1354500Y1678350D01*
X1358500Y1678350D02*
X1359500Y1678350D01*
X1362500Y1678350D02*
X1364500Y1678350D01*
X1368500Y1678350D02*
X1370500Y1678350D01*
X1328500Y1677350D02*
X1329500Y1677350D01*
X1333500Y1677350D02*
X1335500Y1677350D01*
X1338500Y1677350D02*
X1340500Y1677350D01*
X1347500Y1677350D02*
X1349500Y1677350D01*
X1352500Y1677350D02*
X1354500Y1677350D01*
X1358500Y1677350D02*
X1360500Y1677350D01*
X1362500Y1677350D02*
X1363500Y1677350D01*
X1368500Y1677350D02*
X1370500Y1677350D01*
X1319500Y1676350D02*
X1320500Y1676350D01*
X1327500Y1676350D02*
X1329500Y1676350D01*
X1333500Y1676350D02*
X1335500Y1676350D01*
X1338500Y1676350D02*
X1340500Y1676350D01*
X1347500Y1676350D02*
X1349500Y1676350D01*
X1352500Y1676350D02*
X1354500Y1676350D01*
X1359500Y1676350D02*
X1363500Y1676350D01*
X1368500Y1676350D02*
X1370500Y1676350D01*
X1319500Y1675350D02*
X1321500Y1675350D01*
X1326500Y1675350D02*
X1329500Y1675350D01*
X1333500Y1675350D02*
X1335500Y1675350D01*
X1338500Y1675350D02*
X1341500Y1675350D01*
X1347500Y1675350D02*
X1349500Y1675350D01*
X1352500Y1675350D02*
X1354500Y1675350D01*
X1359500Y1675350D02*
X1362500Y1675350D01*
X1368500Y1675350D02*
X1370500Y1675350D01*
X1319500Y1674350D02*
X1328500Y1674350D01*
X1333500Y1674350D02*
X1335500Y1674350D01*
X1338500Y1674350D02*
X1348500Y1674350D01*
X1352500Y1674350D02*
X1354500Y1674350D01*
X1359500Y1674350D02*
X1362500Y1674350D01*
X1368500Y1674350D02*
X1370500Y1674350D01*
X1320500Y1673350D02*
X1327500Y1673350D01*
X1333500Y1673350D02*
X1335500Y1673350D01*
X1338500Y1673350D02*
X1340500Y1673350D01*
X1342500Y1673350D02*
X1347500Y1673350D01*
X1352500Y1673350D02*
X1354500Y1673350D01*
X1360500Y1673350D02*
X1362500Y1673350D01*
X1368500Y1673350D02*
X1370500Y1673350D01*
X1323500Y1672350D02*
X1325500Y1672350D01*
X1344500Y1672350D02*
X1345500Y1672350D01*
X1139500Y1650350D02*
X1549500Y1650350D01*
X1135500Y1649350D02*
X1553500Y1649350D01*
X1133500Y1648350D02*
X1555500Y1648350D01*
X1132500Y1647350D02*
X1556500Y1647350D01*
X1131500Y1646350D02*
X1136500Y1646350D01*
X1553500Y1646350D02*
X1557500Y1646350D01*
X1130500Y1645350D02*
X1134500Y1645350D01*
X1555500Y1645350D02*
X1558500Y1645350D01*
X1130500Y1644350D02*
X1133500Y1644350D01*
X1556500Y1644350D02*
X1559500Y1644350D01*
X1129500Y1643350D02*
X1132500Y1643350D01*
X1557500Y1643350D02*
X1559500Y1643350D01*
X1129500Y1642350D02*
X1132500Y1642350D01*
X1557500Y1642350D02*
X1560500Y1642350D01*
X1129500Y1641350D02*
X1131500Y1641350D01*
X1557500Y1641350D02*
X1560500Y1641350D01*
X1129500Y1640350D02*
X1131500Y1640350D01*
X1558500Y1640350D02*
X1560500Y1640350D01*
X1128500Y1639350D02*
X1131500Y1639350D01*
X1558500Y1639350D02*
X1560500Y1639350D01*
X1128500Y1638350D02*
X1131500Y1638350D01*
X1558500Y1638350D02*
X1560500Y1638350D01*
X1128500Y1637350D02*
X1131500Y1637350D01*
X1558500Y1637350D02*
X1560500Y1637350D01*
X1128500Y1636350D02*
X1131500Y1636350D01*
X1558500Y1636350D02*
X1560500Y1636350D01*
X1128500Y1635350D02*
X1131500Y1635350D01*
X1558500Y1635350D02*
X1560500Y1635350D01*
X1128500Y1634350D02*
X1131500Y1634350D01*
X1558500Y1634350D02*
X1560500Y1634350D01*
X1128500Y1633350D02*
X1131500Y1633350D01*
X1558500Y1633350D02*
X1560500Y1633350D01*
X1128500Y1632350D02*
X1131500Y1632350D01*
X1558500Y1632350D02*
X1560500Y1632350D01*
X1128500Y1631350D02*
X1131500Y1631350D01*
X1558500Y1631350D02*
X1560500Y1631350D01*
X1128500Y1630350D02*
X1131500Y1630350D01*
X1558500Y1630350D02*
X1560500Y1630350D01*
X1128500Y1629350D02*
X1131500Y1629350D01*
X1558500Y1629350D02*
X1560500Y1629350D01*
X1128500Y1628350D02*
X1131500Y1628350D01*
X1558500Y1628350D02*
X1560500Y1628350D01*
X1128500Y1627350D02*
X1131500Y1627350D01*
X1558500Y1627350D02*
X1560500Y1627350D01*
X1128500Y1626350D02*
X1131500Y1626350D01*
X1558500Y1626350D02*
X1560500Y1626350D01*
X1128500Y1625350D02*
X1131500Y1625350D01*
X1558500Y1625350D02*
X1560500Y1625350D01*
X1128500Y1624350D02*
X1131500Y1624350D01*
X1558500Y1624350D02*
X1560500Y1624350D01*
X1128500Y1623350D02*
X1131500Y1623350D01*
X1558500Y1623350D02*
X1560500Y1623350D01*
X1128500Y1622350D02*
X1131500Y1622350D01*
X1558500Y1622350D02*
X1560500Y1622350D01*
X1128500Y1621350D02*
X1131500Y1621350D01*
X1558500Y1621350D02*
X1560500Y1621350D01*
X1128500Y1620350D02*
X1131500Y1620350D01*
X1558500Y1620350D02*
X1560500Y1620350D01*
X1128500Y1619350D02*
X1131500Y1619350D01*
X1558500Y1619350D02*
X1560500Y1619350D01*
X1128500Y1618350D02*
X1131500Y1618350D01*
X1558500Y1618350D02*
X1560500Y1618350D01*
X1128500Y1617350D02*
X1131500Y1617350D01*
X1558500Y1617350D02*
X1560500Y1617350D01*
X1128500Y1616350D02*
X1131500Y1616350D01*
X1558500Y1616350D02*
X1560500Y1616350D01*
X1128500Y1615350D02*
X1131500Y1615350D01*
X1558500Y1615350D02*
X1560500Y1615350D01*
X1128500Y1614350D02*
X1131500Y1614350D01*
X1558500Y1614350D02*
X1560500Y1614350D01*
X1128500Y1613350D02*
X1131500Y1613350D01*
X1558500Y1613350D02*
X1560500Y1613350D01*
X1128500Y1612350D02*
X1131500Y1612350D01*
X1558500Y1612350D02*
X1560500Y1612350D01*
X1128500Y1611350D02*
X1131500Y1611350D01*
X1558500Y1611350D02*
X1560500Y1611350D01*
X1128500Y1610350D02*
X1131500Y1610350D01*
X1558500Y1610350D02*
X1560500Y1610350D01*
X1128500Y1609350D02*
X1131500Y1609350D01*
X1558500Y1609350D02*
X1560500Y1609350D01*
X1128500Y1608350D02*
X1131500Y1608350D01*
X1558500Y1608350D02*
X1560500Y1608350D01*
X1128500Y1607350D02*
X1131500Y1607350D01*
X1558500Y1607350D02*
X1560500Y1607350D01*
X1128500Y1606350D02*
X1131500Y1606350D01*
X1558500Y1606350D02*
X1560500Y1606350D01*
X1128500Y1605350D02*
X1131500Y1605350D01*
X1192500Y1605350D02*
X1194500Y1605350D01*
X1202500Y1605350D02*
X1205500Y1605350D01*
X1212500Y1605350D02*
X1214500Y1605350D01*
X1227500Y1605350D02*
X1235500Y1605350D01*
X1531500Y1605350D02*
X1540500Y1605350D01*
X1558500Y1605350D02*
X1560500Y1605350D01*
X1128500Y1604350D02*
X1131500Y1604350D01*
X1191500Y1604350D02*
X1195500Y1604350D01*
X1202500Y1604350D02*
X1206500Y1604350D01*
X1212500Y1604350D02*
X1214500Y1604350D01*
X1225500Y1604350D02*
X1235500Y1604350D01*
X1493500Y1604350D02*
X1493500Y1604350D01*
X1531500Y1604350D02*
X1540500Y1604350D01*
X1558500Y1604350D02*
X1560500Y1604350D01*
X1128500Y1603350D02*
X1131500Y1603350D01*
X1191500Y1603350D02*
X1196500Y1603350D01*
X1202500Y1603350D02*
X1207500Y1603350D01*
X1212500Y1603350D02*
X1214500Y1603350D01*
X1225500Y1603350D02*
X1227500Y1603350D01*
X1233500Y1603350D02*
X1235500Y1603350D01*
X1492500Y1603350D02*
X1494500Y1603350D01*
X1538500Y1603350D02*
X1540500Y1603350D01*
X1558500Y1603350D02*
X1560500Y1603350D01*
X1128500Y1602350D02*
X1131500Y1602350D01*
X1191500Y1602350D02*
X1193500Y1602350D01*
X1195500Y1602350D02*
X1197500Y1602350D01*
X1202500Y1602350D02*
X1204500Y1602350D01*
X1206500Y1602350D02*
X1208500Y1602350D01*
X1212500Y1602350D02*
X1214500Y1602350D01*
X1224500Y1602350D02*
X1226500Y1602350D01*
X1233500Y1602350D02*
X1235500Y1602350D01*
X1492500Y1602350D02*
X1494500Y1602350D01*
X1539500Y1602350D02*
X1540500Y1602350D01*
X1558500Y1602350D02*
X1560500Y1602350D01*
X1128500Y1601350D02*
X1131500Y1601350D01*
X1191500Y1601350D02*
X1193500Y1601350D01*
X1197500Y1601350D02*
X1197500Y1601350D01*
X1202500Y1601350D02*
X1204500Y1601350D01*
X1208500Y1601350D02*
X1208500Y1601350D01*
X1212500Y1601350D02*
X1214500Y1601350D01*
X1224500Y1601350D02*
X1226500Y1601350D01*
X1233500Y1601350D02*
X1235500Y1601350D01*
X1492500Y1601350D02*
X1494500Y1601350D01*
X1502500Y1601350D02*
X1502500Y1601350D01*
X1515500Y1601350D02*
X1516500Y1601350D01*
X1523500Y1601350D02*
X1523500Y1601350D01*
X1539500Y1601350D02*
X1540500Y1601350D01*
X1558500Y1601350D02*
X1560500Y1601350D01*
X1128500Y1600350D02*
X1131500Y1600350D01*
X1191500Y1600350D02*
X1193500Y1600350D01*
X1202500Y1600350D02*
X1204500Y1600350D01*
X1212500Y1600350D02*
X1214500Y1600350D01*
X1224500Y1600350D02*
X1226500Y1600350D01*
X1233500Y1600350D02*
X1235500Y1600350D01*
X1490500Y1600350D02*
X1496500Y1600350D01*
X1499500Y1600350D02*
X1504500Y1600350D01*
X1506500Y1600350D02*
X1508500Y1600350D01*
X1513500Y1600350D02*
X1519500Y1600350D01*
X1523500Y1600350D02*
X1528500Y1600350D01*
X1539500Y1600350D02*
X1540500Y1600350D01*
X1558500Y1600350D02*
X1560500Y1600350D01*
X1128500Y1599350D02*
X1131500Y1599350D01*
X1191500Y1599350D02*
X1193500Y1599350D01*
X1202500Y1599350D02*
X1204500Y1599350D01*
X1212500Y1599350D02*
X1214500Y1599350D01*
X1224500Y1599350D02*
X1226500Y1599350D01*
X1233500Y1599350D02*
X1235500Y1599350D01*
X1490500Y1599350D02*
X1495500Y1599350D01*
X1499500Y1599350D02*
X1508500Y1599350D01*
X1512500Y1599350D02*
X1520500Y1599350D01*
X1523500Y1599350D02*
X1528500Y1599350D01*
X1539500Y1599350D02*
X1540500Y1599350D01*
X1558500Y1599350D02*
X1560500Y1599350D01*
X1128500Y1598350D02*
X1131500Y1598350D01*
X1191500Y1598350D02*
X1193500Y1598350D01*
X1202500Y1598350D02*
X1204500Y1598350D01*
X1212500Y1598350D02*
X1214500Y1598350D01*
X1224500Y1598350D02*
X1226500Y1598350D01*
X1233500Y1598350D02*
X1235500Y1598350D01*
X1492500Y1598350D02*
X1494500Y1598350D01*
X1498500Y1598350D02*
X1500500Y1598350D01*
X1505500Y1598350D02*
X1508500Y1598350D01*
X1511500Y1598350D02*
X1513500Y1598350D01*
X1518500Y1598350D02*
X1520500Y1598350D01*
X1525500Y1598350D02*
X1528500Y1598350D01*
X1538500Y1598350D02*
X1540500Y1598350D01*
X1558500Y1598350D02*
X1560500Y1598350D01*
X1128500Y1597350D02*
X1131500Y1597350D01*
X1191500Y1597350D02*
X1193500Y1597350D01*
X1202500Y1597350D02*
X1204500Y1597350D01*
X1212500Y1597350D02*
X1214500Y1597350D01*
X1225500Y1597350D02*
X1235500Y1597350D01*
X1492500Y1597350D02*
X1494500Y1597350D01*
X1498500Y1597350D02*
X1500500Y1597350D01*
X1506500Y1597350D02*
X1508500Y1597350D01*
X1511500Y1597350D02*
X1512500Y1597350D01*
X1519500Y1597350D02*
X1521500Y1597350D01*
X1526500Y1597350D02*
X1528500Y1597350D01*
X1531500Y1597350D02*
X1540500Y1597350D01*
X1558500Y1597350D02*
X1560500Y1597350D01*
X1128500Y1596350D02*
X1131500Y1596350D01*
X1191500Y1596350D02*
X1193500Y1596350D01*
X1202500Y1596350D02*
X1204500Y1596350D01*
X1212500Y1596350D02*
X1214500Y1596350D01*
X1226500Y1596350D02*
X1235500Y1596350D01*
X1492500Y1596350D02*
X1494500Y1596350D01*
X1498500Y1596350D02*
X1500500Y1596350D01*
X1506500Y1596350D02*
X1508500Y1596350D01*
X1511500Y1596350D02*
X1512500Y1596350D01*
X1519500Y1596350D02*
X1521500Y1596350D01*
X1526500Y1596350D02*
X1528500Y1596350D01*
X1532500Y1596350D02*
X1540500Y1596350D01*
X1558500Y1596350D02*
X1560500Y1596350D01*
X1128500Y1595350D02*
X1131500Y1595350D01*
X1191500Y1595350D02*
X1193500Y1595350D01*
X1202500Y1595350D02*
X1204500Y1595350D01*
X1212500Y1595350D02*
X1214500Y1595350D01*
X1227500Y1595350D02*
X1229500Y1595350D01*
X1233500Y1595350D02*
X1235500Y1595350D01*
X1492500Y1595350D02*
X1494500Y1595350D01*
X1498500Y1595350D02*
X1500500Y1595350D01*
X1506500Y1595350D02*
X1508500Y1595350D01*
X1510500Y1595350D02*
X1512500Y1595350D01*
X1520500Y1595350D02*
X1521500Y1595350D01*
X1526500Y1595350D02*
X1528500Y1595350D01*
X1539500Y1595350D02*
X1540500Y1595350D01*
X1558500Y1595350D02*
X1560500Y1595350D01*
X1128500Y1594350D02*
X1131500Y1594350D01*
X1191500Y1594350D02*
X1193500Y1594350D01*
X1202500Y1594350D02*
X1204500Y1594350D01*
X1212500Y1594350D02*
X1214500Y1594350D01*
X1226500Y1594350D02*
X1228500Y1594350D01*
X1233500Y1594350D02*
X1235500Y1594350D01*
X1492500Y1594350D02*
X1494500Y1594350D01*
X1498500Y1594350D02*
X1500500Y1594350D01*
X1506500Y1594350D02*
X1508500Y1594350D01*
X1511500Y1594350D02*
X1512500Y1594350D01*
X1519500Y1594350D02*
X1521500Y1594350D01*
X1526500Y1594350D02*
X1528500Y1594350D01*
X1539500Y1594350D02*
X1540500Y1594350D01*
X1558500Y1594350D02*
X1560500Y1594350D01*
X1128500Y1593350D02*
X1131500Y1593350D01*
X1191500Y1593350D02*
X1193500Y1593350D01*
X1202500Y1593350D02*
X1204500Y1593350D01*
X1212500Y1593350D02*
X1214500Y1593350D01*
X1220500Y1593350D02*
X1221500Y1593350D01*
X1226500Y1593350D02*
X1228500Y1593350D01*
X1233500Y1593350D02*
X1235500Y1593350D01*
X1492500Y1593350D02*
X1494500Y1593350D01*
X1498500Y1593350D02*
X1500500Y1593350D01*
X1506500Y1593350D02*
X1508500Y1593350D01*
X1511500Y1593350D02*
X1512500Y1593350D01*
X1519500Y1593350D02*
X1521500Y1593350D01*
X1526500Y1593350D02*
X1528500Y1593350D01*
X1539500Y1593350D02*
X1540500Y1593350D01*
X1558500Y1593350D02*
X1560500Y1593350D01*
X1128500Y1592350D02*
X1131500Y1592350D01*
X1191500Y1592350D02*
X1193500Y1592350D01*
X1202500Y1592350D02*
X1204500Y1592350D01*
X1212500Y1592350D02*
X1214500Y1592350D01*
X1219500Y1592350D02*
X1221500Y1592350D01*
X1225500Y1592350D02*
X1227500Y1592350D01*
X1233500Y1592350D02*
X1235500Y1592350D01*
X1492500Y1592350D02*
X1494500Y1592350D01*
X1498500Y1592350D02*
X1500500Y1592350D01*
X1506500Y1592350D02*
X1508500Y1592350D01*
X1511500Y1592350D02*
X1513500Y1592350D01*
X1519500Y1592350D02*
X1521500Y1592350D01*
X1526500Y1592350D02*
X1528500Y1592350D01*
X1539500Y1592350D02*
X1540500Y1592350D01*
X1558500Y1592350D02*
X1560500Y1592350D01*
X1128500Y1591350D02*
X1131500Y1591350D01*
X1191500Y1591350D02*
X1193500Y1591350D01*
X1202500Y1591350D02*
X1204500Y1591350D01*
X1213500Y1591350D02*
X1215500Y1591350D01*
X1219500Y1591350D02*
X1221500Y1591350D01*
X1225500Y1591350D02*
X1227500Y1591350D01*
X1233500Y1591350D02*
X1235500Y1591350D01*
X1492500Y1591350D02*
X1494500Y1591350D01*
X1498500Y1591350D02*
X1500500Y1591350D01*
X1506500Y1591350D02*
X1508500Y1591350D01*
X1511500Y1591350D02*
X1514500Y1591350D01*
X1518500Y1591350D02*
X1520500Y1591350D01*
X1526500Y1591350D02*
X1528500Y1591350D01*
X1539500Y1591350D02*
X1540500Y1591350D01*
X1558500Y1591350D02*
X1560500Y1591350D01*
X1128500Y1590350D02*
X1131500Y1590350D01*
X1191500Y1590350D02*
X1193500Y1590350D01*
X1202500Y1590350D02*
X1204500Y1590350D01*
X1213500Y1590350D02*
X1220500Y1590350D01*
X1224500Y1590350D02*
X1226500Y1590350D01*
X1233500Y1590350D02*
X1235500Y1590350D01*
X1490500Y1590350D02*
X1493500Y1590350D01*
X1498500Y1590350D02*
X1500500Y1590350D01*
X1506500Y1590350D02*
X1508500Y1590350D01*
X1512500Y1590350D02*
X1519500Y1590350D01*
X1526500Y1590350D02*
X1528500Y1590350D01*
X1539500Y1590350D02*
X1540500Y1590350D01*
X1558500Y1590350D02*
X1560500Y1590350D01*
X1128500Y1589350D02*
X1131500Y1589350D01*
X1192500Y1589350D02*
X1193500Y1589350D01*
X1202500Y1589350D02*
X1204500Y1589350D01*
X1215500Y1589350D02*
X1219500Y1589350D01*
X1224500Y1589350D02*
X1225500Y1589350D01*
X1233500Y1589350D02*
X1235500Y1589350D01*
X1490500Y1589350D02*
X1493500Y1589350D01*
X1498500Y1589350D02*
X1499500Y1589350D01*
X1506500Y1589350D02*
X1507500Y1589350D01*
X1514500Y1589350D02*
X1518500Y1589350D01*
X1526500Y1589350D02*
X1528500Y1589350D01*
X1539500Y1589350D02*
X1540500Y1589350D01*
X1558500Y1589350D02*
X1560500Y1589350D01*
X1128500Y1588350D02*
X1131500Y1588350D01*
X1558500Y1588350D02*
X1560500Y1588350D01*
X1128500Y1587350D02*
X1131500Y1587350D01*
X1558500Y1587350D02*
X1560500Y1587350D01*
X1128500Y1586350D02*
X1131500Y1586350D01*
X1558500Y1586350D02*
X1560500Y1586350D01*
X1128500Y1585350D02*
X1131500Y1585350D01*
X1558500Y1585350D02*
X1560500Y1585350D01*
X1128500Y1584350D02*
X1131500Y1584350D01*
X1558500Y1584350D02*
X1560500Y1584350D01*
X1128500Y1583350D02*
X1131500Y1583350D01*
X1558500Y1583350D02*
X1560500Y1583350D01*
X1128500Y1582350D02*
X1131500Y1582350D01*
X1558500Y1582350D02*
X1560500Y1582350D01*
X1128500Y1581350D02*
X1131500Y1581350D01*
X1558500Y1581350D02*
X1560500Y1581350D01*
X1128500Y1580350D02*
X1131500Y1580350D01*
X1558500Y1580350D02*
X1560500Y1580350D01*
X1128500Y1579350D02*
X1131500Y1579350D01*
X1558500Y1579350D02*
X1560500Y1579350D01*
X1128500Y1578350D02*
X1131500Y1578350D01*
X1558500Y1578350D02*
X1560500Y1578350D01*
X1128500Y1577350D02*
X1131500Y1577350D01*
X1558500Y1577350D02*
X1560500Y1577350D01*
X1128500Y1576350D02*
X1131500Y1576350D01*
X1558500Y1576350D02*
X1560500Y1576350D01*
X1128500Y1575350D02*
X1131500Y1575350D01*
X1558500Y1575350D02*
X1560500Y1575350D01*
X1128500Y1574350D02*
X1131500Y1574350D01*
X1558500Y1574350D02*
X1560500Y1574350D01*
X1128500Y1573350D02*
X1131500Y1573350D01*
X1558500Y1573350D02*
X1560500Y1573350D01*
X1128500Y1572350D02*
X1131500Y1572350D01*
X1558500Y1572350D02*
X1560500Y1572350D01*
X1128500Y1571350D02*
X1131500Y1571350D01*
X1558500Y1571350D02*
X1560500Y1571350D01*
X1128500Y1570350D02*
X1131500Y1570350D01*
X1558500Y1570350D02*
X1560500Y1570350D01*
X1128500Y1569350D02*
X1131500Y1569350D01*
X1558500Y1569350D02*
X1560500Y1569350D01*
X1128500Y1568350D02*
X1131500Y1568350D01*
X1558500Y1568350D02*
X1560500Y1568350D01*
X1128500Y1567350D02*
X1131500Y1567350D01*
X1558500Y1567350D02*
X1560500Y1567350D01*
X1128500Y1566350D02*
X1131500Y1566350D01*
X1558500Y1566350D02*
X1560500Y1566350D01*
X1128500Y1565350D02*
X1131500Y1565350D01*
X1558500Y1565350D02*
X1560500Y1565350D01*
X1128500Y1564350D02*
X1131500Y1564350D01*
X1558500Y1564350D02*
X1560500Y1564350D01*
X1128500Y1563350D02*
X1131500Y1563350D01*
X1558500Y1563350D02*
X1560500Y1563350D01*
X1128500Y1562350D02*
X1131500Y1562350D01*
X1558500Y1562350D02*
X1560500Y1562350D01*
X1128500Y1561350D02*
X1131500Y1561350D01*
X1558500Y1561350D02*
X1560500Y1561350D01*
X1128500Y1560350D02*
X1131500Y1560350D01*
X1558500Y1560350D02*
X1560500Y1560350D01*
X1128500Y1559350D02*
X1131500Y1559350D01*
X1558500Y1559350D02*
X1560500Y1559350D01*
X1128500Y1558350D02*
X1131500Y1558350D01*
X1558500Y1558350D02*
X1560500Y1558350D01*
X1128500Y1557350D02*
X1131500Y1557350D01*
X1558500Y1557350D02*
X1560500Y1557350D01*
X1128500Y1556350D02*
X1131500Y1556350D01*
X1558500Y1556350D02*
X1560500Y1556350D01*
X1128500Y1555350D02*
X1131500Y1555350D01*
X1558500Y1555350D02*
X1560500Y1555350D01*
X1128500Y1554350D02*
X1131500Y1554350D01*
X1558500Y1554350D02*
X1560500Y1554350D01*
X1128500Y1553350D02*
X1131500Y1553350D01*
X1558500Y1553350D02*
X1560500Y1553350D01*
X1128500Y1552350D02*
X1131500Y1552350D01*
X1558500Y1552350D02*
X1560500Y1552350D01*
X1128500Y1551350D02*
X1131500Y1551350D01*
X1558500Y1551350D02*
X1560500Y1551350D01*
X1128500Y1550350D02*
X1131500Y1550350D01*
X1558500Y1550350D02*
X1560500Y1550350D01*
X1128500Y1549350D02*
X1131500Y1549350D01*
X1558500Y1549350D02*
X1560500Y1549350D01*
X1128500Y1548350D02*
X1131500Y1548350D01*
X1558500Y1548350D02*
X1560500Y1548350D01*
X1128500Y1547350D02*
X1131500Y1547350D01*
X1558500Y1547350D02*
X1560500Y1547350D01*
X1128500Y1546350D02*
X1131500Y1546350D01*
X1558500Y1546350D02*
X1560500Y1546350D01*
X1128500Y1545350D02*
X1131500Y1545350D01*
X1558500Y1545350D02*
X1560500Y1545350D01*
X1128500Y1544350D02*
X1131500Y1544350D01*
X1558500Y1544350D02*
X1560500Y1544350D01*
X1128500Y1543350D02*
X1131500Y1543350D01*
X1558500Y1543350D02*
X1560500Y1543350D01*
X1128500Y1542350D02*
X1131500Y1542350D01*
X1558500Y1542350D02*
X1560500Y1542350D01*
X1128500Y1541350D02*
X1131500Y1541350D01*
X1558500Y1541350D02*
X1560500Y1541350D01*
X1128500Y1540350D02*
X1131500Y1540350D01*
X1558500Y1540350D02*
X1560500Y1540350D01*
X1128500Y1539350D02*
X1131500Y1539350D01*
X1558500Y1539350D02*
X1560500Y1539350D01*
X1128500Y1538350D02*
X1131500Y1538350D01*
X1558500Y1538350D02*
X1560500Y1538350D01*
X1129500Y1537350D02*
X1131500Y1537350D01*
X1558500Y1537350D02*
X1560500Y1537350D01*
X1129500Y1536350D02*
X1131500Y1536350D01*
X1557500Y1536350D02*
X1560500Y1536350D01*
X1129500Y1535350D02*
X1132500Y1535350D01*
X1557500Y1535350D02*
X1560500Y1535350D01*
X1129500Y1534350D02*
X1132500Y1534350D01*
X1556500Y1534350D02*
X1559500Y1534350D01*
X1130500Y1533350D02*
X1133500Y1533350D01*
X1556500Y1533350D02*
X1559500Y1533350D01*
X1131500Y1532350D02*
X1134500Y1532350D01*
X1554500Y1532350D02*
X1558500Y1532350D01*
X1131500Y1531350D02*
X1137500Y1531350D01*
X1552500Y1531350D02*
X1557500Y1531350D01*
X1038500Y1530350D02*
X1650500Y1530350D01*
X1037500Y1529350D02*
X1652500Y1529350D01*
X1036500Y1528350D02*
X1653500Y1528350D01*
X1035500Y1527350D02*
X1040500Y1527350D01*
X1237500Y1527350D02*
X1239500Y1527350D01*
X1450500Y1527350D02*
X1452500Y1527350D01*
X1649500Y1527350D02*
X1654500Y1527350D01*
X1034500Y1526350D02*
X1037500Y1526350D01*
X1237500Y1526350D02*
X1238500Y1526350D01*
X1451500Y1526350D02*
X1452500Y1526350D01*
X1651500Y1526350D02*
X1655500Y1526350D01*
X1034500Y1525350D02*
X1037500Y1525350D01*
X1236500Y1525350D02*
X1238500Y1525350D01*
X1451500Y1525350D02*
X1452500Y1525350D01*
X1652500Y1525350D02*
X1655500Y1525350D01*
X1033500Y1524350D02*
X1036500Y1524350D01*
X1236500Y1524350D02*
X1238500Y1524350D01*
X1451500Y1524350D02*
X1452500Y1524350D01*
X1653500Y1524350D02*
X1655500Y1524350D01*
X1033500Y1523350D02*
X1036500Y1523350D01*
X1236500Y1523350D02*
X1238500Y1523350D01*
X1451500Y1523350D02*
X1452500Y1523350D01*
X1653500Y1523350D02*
X1656500Y1523350D01*
X1033500Y1522350D02*
X1036500Y1522350D01*
X1236500Y1522350D02*
X1238500Y1522350D01*
X1451500Y1522350D02*
X1452500Y1522350D01*
X1653500Y1522350D02*
X1656500Y1522350D01*
X1033500Y1521350D02*
X1036500Y1521350D01*
X1236500Y1521350D02*
X1238500Y1521350D01*
X1451500Y1521350D02*
X1452500Y1521350D01*
X1653500Y1521350D02*
X1656500Y1521350D01*
X1033500Y1520350D02*
X1036500Y1520350D01*
X1236500Y1520350D02*
X1238500Y1520350D01*
X1451500Y1520350D02*
X1452500Y1520350D01*
X1653500Y1520350D02*
X1656500Y1520350D01*
X1033500Y1519350D02*
X1036500Y1519350D01*
X1236500Y1519350D02*
X1238500Y1519350D01*
X1451500Y1519350D02*
X1452500Y1519350D01*
X1653500Y1519350D02*
X1656500Y1519350D01*
X1033500Y1518350D02*
X1036500Y1518350D01*
X1236500Y1518350D02*
X1238500Y1518350D01*
X1451500Y1518350D02*
X1452500Y1518350D01*
X1653500Y1518350D02*
X1656500Y1518350D01*
X1033500Y1517350D02*
X1036500Y1517350D01*
X1236500Y1517350D02*
X1238500Y1517350D01*
X1451500Y1517350D02*
X1452500Y1517350D01*
X1653500Y1517350D02*
X1656500Y1517350D01*
X1033500Y1516350D02*
X1036500Y1516350D01*
X1236500Y1516350D02*
X1238500Y1516350D01*
X1451500Y1516350D02*
X1452500Y1516350D01*
X1653500Y1516350D02*
X1656500Y1516350D01*
X1033500Y1515350D02*
X1036500Y1515350D01*
X1236500Y1515350D02*
X1238500Y1515350D01*
X1451500Y1515350D02*
X1452500Y1515350D01*
X1653500Y1515350D02*
X1656500Y1515350D01*
X1033500Y1514350D02*
X1036500Y1514350D01*
X1236500Y1514350D02*
X1238500Y1514350D01*
X1451500Y1514350D02*
X1452500Y1514350D01*
X1653500Y1514350D02*
X1656500Y1514350D01*
X1033500Y1513350D02*
X1036500Y1513350D01*
X1237500Y1513350D02*
X1238500Y1513350D01*
X1451500Y1513350D02*
X1452500Y1513350D01*
X1653500Y1513350D02*
X1656500Y1513350D01*
X1033500Y1512350D02*
X1036500Y1512350D01*
X1237500Y1512350D02*
X1239500Y1512350D01*
X1450500Y1512350D02*
X1452500Y1512350D01*
X1653500Y1512350D02*
X1656500Y1512350D01*
X1033500Y1511350D02*
X1036500Y1511350D01*
X1238500Y1511350D02*
X1451500Y1511350D01*
X1653500Y1511350D02*
X1656500Y1511350D01*
X1033500Y1510350D02*
X1036500Y1510350D01*
X1239500Y1510350D02*
X1450500Y1510350D01*
X1653500Y1510350D02*
X1656500Y1510350D01*
X1033500Y1509350D02*
X1036500Y1509350D01*
X1241500Y1509350D02*
X1448500Y1509350D01*
X1653500Y1509350D02*
X1656500Y1509350D01*
X1033500Y1508350D02*
X1036500Y1508350D01*
X1653500Y1508350D02*
X1656500Y1508350D01*
X1033500Y1507350D02*
X1036500Y1507350D01*
X1653500Y1507350D02*
X1656500Y1507350D01*
X1033500Y1506350D02*
X1036500Y1506350D01*
X1653500Y1506350D02*
X1656500Y1506350D01*
X1033500Y1505350D02*
X1036500Y1505350D01*
X1653500Y1505350D02*
X1656500Y1505350D01*
X1033500Y1504350D02*
X1036500Y1504350D01*
X1653500Y1504350D02*
X1656500Y1504350D01*
X1033500Y1503350D02*
X1036500Y1503350D01*
X1653500Y1503350D02*
X1656500Y1503350D01*
X1033500Y1502350D02*
X1036500Y1502350D01*
X1653500Y1502350D02*
X1656500Y1502350D01*
X1033500Y1501350D02*
X1036500Y1501350D01*
X1653500Y1501350D02*
X1656500Y1501350D01*
X1033500Y1500350D02*
X1036500Y1500350D01*
X1653500Y1500350D02*
X1656500Y1500350D01*
X1033500Y1499350D02*
X1036500Y1499350D01*
X1653500Y1499350D02*
X1656500Y1499350D01*
X1033500Y1498350D02*
X1036500Y1498350D01*
X1653500Y1498350D02*
X1656500Y1498350D01*
X1033500Y1497350D02*
X1036500Y1497350D01*
X1653500Y1497350D02*
X1656500Y1497350D01*
X1033500Y1496350D02*
X1036500Y1496350D01*
X1653500Y1496350D02*
X1656500Y1496350D01*
X1033500Y1495350D02*
X1036500Y1495350D01*
X1653500Y1495350D02*
X1656500Y1495350D01*
X1033500Y1494350D02*
X1036500Y1494350D01*
X1653500Y1494350D02*
X1656500Y1494350D01*
X1033500Y1493350D02*
X1036500Y1493350D01*
X1653500Y1493350D02*
X1656500Y1493350D01*
X1033500Y1492350D02*
X1036500Y1492350D01*
X1653500Y1492350D02*
X1656500Y1492350D01*
X1033500Y1491350D02*
X1036500Y1491350D01*
X1653500Y1491350D02*
X1656500Y1491350D01*
X1033500Y1490350D02*
X1036500Y1490350D01*
X1653500Y1490350D02*
X1656500Y1490350D01*
X1033500Y1489350D02*
X1036500Y1489350D01*
X1653500Y1489350D02*
X1656500Y1489350D01*
X1033500Y1488350D02*
X1036500Y1488350D01*
X1653500Y1488350D02*
X1656500Y1488350D01*
X1033500Y1487350D02*
X1036500Y1487350D01*
X1653500Y1487350D02*
X1656500Y1487350D01*
X1033500Y1486350D02*
X1036500Y1486350D01*
X1653500Y1486350D02*
X1656500Y1486350D01*
X1033500Y1485350D02*
X1036500Y1485350D01*
X1653500Y1485350D02*
X1656500Y1485350D01*
X1033500Y1484350D02*
X1036500Y1484350D01*
X1653500Y1484350D02*
X1656500Y1484350D01*
X1033500Y1483350D02*
X1036500Y1483350D01*
X1653500Y1483350D02*
X1656500Y1483350D01*
X1033500Y1482350D02*
X1036500Y1482350D01*
X1653500Y1482350D02*
X1656500Y1482350D01*
X1033500Y1481350D02*
X1036500Y1481350D01*
X1653500Y1481350D02*
X1656500Y1481350D01*
X1033500Y1480350D02*
X1036500Y1480350D01*
X1653500Y1480350D02*
X1656500Y1480350D01*
X1033500Y1479350D02*
X1036500Y1479350D01*
X1653500Y1479350D02*
X1656500Y1479350D01*
X1033500Y1478350D02*
X1036500Y1478350D01*
X1653500Y1478350D02*
X1656500Y1478350D01*
X1033500Y1477350D02*
X1036500Y1477350D01*
X1653500Y1477350D02*
X1656500Y1477350D01*
X1033500Y1476350D02*
X1036500Y1476350D01*
X1653500Y1476350D02*
X1656500Y1476350D01*
X1033500Y1475350D02*
X1036500Y1475350D01*
X1653500Y1475350D02*
X1656500Y1475350D01*
X1033500Y1474350D02*
X1036500Y1474350D01*
X1653500Y1474350D02*
X1656500Y1474350D01*
X1033500Y1473350D02*
X1036500Y1473350D01*
X1653500Y1473350D02*
X1656500Y1473350D01*
X1033500Y1472350D02*
X1036500Y1472350D01*
X1653500Y1472350D02*
X1656500Y1472350D01*
X1033500Y1471350D02*
X1036500Y1471350D01*
X1653500Y1471350D02*
X1656500Y1471350D01*
X1033500Y1470350D02*
X1036500Y1470350D01*
X1653500Y1470350D02*
X1656500Y1470350D01*
X1033500Y1469350D02*
X1036500Y1469350D01*
X1653500Y1469350D02*
X1656500Y1469350D01*
X1033500Y1468350D02*
X1036500Y1468350D01*
X1653500Y1468350D02*
X1656500Y1468350D01*
X1033500Y1467350D02*
X1036500Y1467350D01*
X1653500Y1467350D02*
X1656500Y1467350D01*
X1033500Y1466350D02*
X1036500Y1466350D01*
X1653500Y1466350D02*
X1656500Y1466350D01*
X1033500Y1465350D02*
X1036500Y1465350D01*
X1653500Y1465350D02*
X1656500Y1465350D01*
X1033500Y1464350D02*
X1036500Y1464350D01*
X1653500Y1464350D02*
X1656500Y1464350D01*
X1033500Y1463350D02*
X1036500Y1463350D01*
X1653500Y1463350D02*
X1656500Y1463350D01*
X1033500Y1462350D02*
X1036500Y1462350D01*
X1653500Y1462350D02*
X1656500Y1462350D01*
X1033500Y1461350D02*
X1036500Y1461350D01*
X1653500Y1461350D02*
X1656500Y1461350D01*
X1033500Y1460350D02*
X1036500Y1460350D01*
X1653500Y1460350D02*
X1656500Y1460350D01*
X1033500Y1459350D02*
X1036500Y1459350D01*
X1653500Y1459350D02*
X1656500Y1459350D01*
X1033500Y1458350D02*
X1036500Y1458350D01*
X1653500Y1458350D02*
X1656500Y1458350D01*
X1033500Y1457350D02*
X1036500Y1457350D01*
X1653500Y1457350D02*
X1656500Y1457350D01*
X1033500Y1456350D02*
X1036500Y1456350D01*
X1653500Y1456350D02*
X1656500Y1456350D01*
X1033500Y1455350D02*
X1036500Y1455350D01*
X1653500Y1455350D02*
X1656500Y1455350D01*
X1033500Y1454350D02*
X1036500Y1454350D01*
X1653500Y1454350D02*
X1656500Y1454350D01*
X1033500Y1453350D02*
X1036500Y1453350D01*
X1653500Y1453350D02*
X1656500Y1453350D01*
X1033500Y1452350D02*
X1036500Y1452350D01*
X1653500Y1452350D02*
X1656500Y1452350D01*
X1033500Y1451350D02*
X1036500Y1451350D01*
X1653500Y1451350D02*
X1656500Y1451350D01*
X1033500Y1450350D02*
X1036500Y1450350D01*
X1653500Y1450350D02*
X1656500Y1450350D01*
X1033500Y1449350D02*
X1036500Y1449350D01*
X1653500Y1449350D02*
X1656500Y1449350D01*
X1033500Y1448350D02*
X1036500Y1448350D01*
X1653500Y1448350D02*
X1656500Y1448350D01*
X1033500Y1447350D02*
X1036500Y1447350D01*
X1653500Y1447350D02*
X1656500Y1447350D01*
X1033500Y1446350D02*
X1036500Y1446350D01*
X1653500Y1446350D02*
X1656500Y1446350D01*
X1033500Y1445350D02*
X1036500Y1445350D01*
X1653500Y1445350D02*
X1656500Y1445350D01*
X1033500Y1444350D02*
X1036500Y1444350D01*
X1653500Y1444350D02*
X1656500Y1444350D01*
X1033500Y1443350D02*
X1036500Y1443350D01*
X1653500Y1443350D02*
X1656500Y1443350D01*
X1033500Y1442350D02*
X1036500Y1442350D01*
X1653500Y1442350D02*
X1656500Y1442350D01*
X1033500Y1441350D02*
X1036500Y1441350D01*
X1653500Y1441350D02*
X1656500Y1441350D01*
X1033500Y1440350D02*
X1036500Y1440350D01*
X1653500Y1440350D02*
X1656500Y1440350D01*
X1033500Y1439350D02*
X1036500Y1439350D01*
X1653500Y1439350D02*
X1656500Y1439350D01*
X1033500Y1438350D02*
X1036500Y1438350D01*
X1653500Y1438350D02*
X1656500Y1438350D01*
X1033500Y1437350D02*
X1036500Y1437350D01*
X1653500Y1437350D02*
X1656500Y1437350D01*
X1033500Y1436350D02*
X1036500Y1436350D01*
X1653500Y1436350D02*
X1656500Y1436350D01*
X1033500Y1435350D02*
X1036500Y1435350D01*
X1653500Y1435350D02*
X1656500Y1435350D01*
X1033500Y1434350D02*
X1036500Y1434350D01*
X1123500Y1434350D02*
X1150500Y1434350D01*
X1209500Y1434350D02*
X1236500Y1434350D01*
X1295500Y1434350D02*
X1322500Y1434350D01*
X1381500Y1434350D02*
X1408500Y1434350D01*
X1467500Y1434350D02*
X1494500Y1434350D01*
X1553500Y1434350D02*
X1580500Y1434350D01*
X1653500Y1434350D02*
X1656500Y1434350D01*
X1033500Y1433350D02*
X1036500Y1433350D01*
X1122500Y1433350D02*
X1151500Y1433350D01*
X1208500Y1433350D02*
X1237500Y1433350D01*
X1294500Y1433350D02*
X1323500Y1433350D01*
X1380500Y1433350D02*
X1409500Y1433350D01*
X1466500Y1433350D02*
X1495500Y1433350D01*
X1552500Y1433350D02*
X1581500Y1433350D01*
X1653500Y1433350D02*
X1656500Y1433350D01*
X1033500Y1432350D02*
X1036500Y1432350D01*
X1122500Y1432350D02*
X1124500Y1432350D01*
X1150500Y1432350D02*
X1152500Y1432350D01*
X1208500Y1432350D02*
X1209500Y1432350D01*
X1236500Y1432350D02*
X1238500Y1432350D01*
X1294500Y1432350D02*
X1295500Y1432350D01*
X1322500Y1432350D02*
X1323500Y1432350D01*
X1380500Y1432350D02*
X1381500Y1432350D01*
X1408500Y1432350D02*
X1409500Y1432350D01*
X1465500Y1432350D02*
X1467500Y1432350D01*
X1494500Y1432350D02*
X1495500Y1432350D01*
X1551500Y1432350D02*
X1553500Y1432350D01*
X1579500Y1432350D02*
X1581500Y1432350D01*
X1653500Y1432350D02*
X1656500Y1432350D01*
X1033500Y1431350D02*
X1036500Y1431350D01*
X1122500Y1431350D02*
X1123500Y1431350D01*
X1150500Y1431350D02*
X1152500Y1431350D01*
X1208500Y1431350D02*
X1209500Y1431350D01*
X1236500Y1431350D02*
X1238500Y1431350D01*
X1294500Y1431350D02*
X1295500Y1431350D01*
X1322500Y1431350D02*
X1324500Y1431350D01*
X1379500Y1431350D02*
X1381500Y1431350D01*
X1408500Y1431350D02*
X1409500Y1431350D01*
X1465500Y1431350D02*
X1467500Y1431350D01*
X1494500Y1431350D02*
X1495500Y1431350D01*
X1551500Y1431350D02*
X1553500Y1431350D01*
X1580500Y1431350D02*
X1581500Y1431350D01*
X1653500Y1431350D02*
X1656500Y1431350D01*
X1033500Y1430350D02*
X1036500Y1430350D01*
X1122500Y1430350D02*
X1123500Y1430350D01*
X1150500Y1430350D02*
X1152500Y1430350D01*
X1208500Y1430350D02*
X1209500Y1430350D01*
X1236500Y1430350D02*
X1238500Y1430350D01*
X1294500Y1430350D02*
X1295500Y1430350D01*
X1322500Y1430350D02*
X1324500Y1430350D01*
X1379500Y1430350D02*
X1381500Y1430350D01*
X1408500Y1430350D02*
X1409500Y1430350D01*
X1465500Y1430350D02*
X1467500Y1430350D01*
X1494500Y1430350D02*
X1495500Y1430350D01*
X1551500Y1430350D02*
X1553500Y1430350D01*
X1580500Y1430350D02*
X1581500Y1430350D01*
X1653500Y1430350D02*
X1656500Y1430350D01*
X1033500Y1429350D02*
X1036500Y1429350D01*
X1122500Y1429350D02*
X1123500Y1429350D01*
X1150500Y1429350D02*
X1152500Y1429350D01*
X1208500Y1429350D02*
X1209500Y1429350D01*
X1236500Y1429350D02*
X1238500Y1429350D01*
X1294500Y1429350D02*
X1295500Y1429350D01*
X1322500Y1429350D02*
X1324500Y1429350D01*
X1379500Y1429350D02*
X1381500Y1429350D01*
X1408500Y1429350D02*
X1409500Y1429350D01*
X1465500Y1429350D02*
X1467500Y1429350D01*
X1494500Y1429350D02*
X1495500Y1429350D01*
X1551500Y1429350D02*
X1553500Y1429350D01*
X1580500Y1429350D02*
X1581500Y1429350D01*
X1653500Y1429350D02*
X1656500Y1429350D01*
X1033500Y1428350D02*
X1036500Y1428350D01*
X1122500Y1428350D02*
X1123500Y1428350D01*
X1150500Y1428350D02*
X1152500Y1428350D01*
X1208500Y1428350D02*
X1209500Y1428350D01*
X1236500Y1428350D02*
X1238500Y1428350D01*
X1294500Y1428350D02*
X1295500Y1428350D01*
X1322500Y1428350D02*
X1324500Y1428350D01*
X1379500Y1428350D02*
X1381500Y1428350D01*
X1408500Y1428350D02*
X1409500Y1428350D01*
X1465500Y1428350D02*
X1467500Y1428350D01*
X1494500Y1428350D02*
X1495500Y1428350D01*
X1551500Y1428350D02*
X1553500Y1428350D01*
X1580500Y1428350D02*
X1581500Y1428350D01*
X1653500Y1428350D02*
X1656500Y1428350D01*
X1033500Y1427350D02*
X1036500Y1427350D01*
X1122500Y1427350D02*
X1123500Y1427350D01*
X1150500Y1427350D02*
X1152500Y1427350D01*
X1208500Y1427350D02*
X1209500Y1427350D01*
X1236500Y1427350D02*
X1238500Y1427350D01*
X1294500Y1427350D02*
X1295500Y1427350D01*
X1322500Y1427350D02*
X1324500Y1427350D01*
X1379500Y1427350D02*
X1381500Y1427350D01*
X1408500Y1427350D02*
X1409500Y1427350D01*
X1465500Y1427350D02*
X1467500Y1427350D01*
X1494500Y1427350D02*
X1495500Y1427350D01*
X1551500Y1427350D02*
X1553500Y1427350D01*
X1580500Y1427350D02*
X1581500Y1427350D01*
X1653500Y1427350D02*
X1656500Y1427350D01*
X1033500Y1426350D02*
X1036500Y1426350D01*
X1122500Y1426350D02*
X1123500Y1426350D01*
X1150500Y1426350D02*
X1152500Y1426350D01*
X1208500Y1426350D02*
X1209500Y1426350D01*
X1236500Y1426350D02*
X1238500Y1426350D01*
X1294500Y1426350D02*
X1295500Y1426350D01*
X1322500Y1426350D02*
X1324500Y1426350D01*
X1379500Y1426350D02*
X1381500Y1426350D01*
X1408500Y1426350D02*
X1409500Y1426350D01*
X1465500Y1426350D02*
X1467500Y1426350D01*
X1494500Y1426350D02*
X1495500Y1426350D01*
X1551500Y1426350D02*
X1553500Y1426350D01*
X1580500Y1426350D02*
X1581500Y1426350D01*
X1653500Y1426350D02*
X1656500Y1426350D01*
X1033500Y1425350D02*
X1036500Y1425350D01*
X1122500Y1425350D02*
X1123500Y1425350D01*
X1150500Y1425350D02*
X1152500Y1425350D01*
X1208500Y1425350D02*
X1209500Y1425350D01*
X1236500Y1425350D02*
X1238500Y1425350D01*
X1294500Y1425350D02*
X1295500Y1425350D01*
X1322500Y1425350D02*
X1324500Y1425350D01*
X1379500Y1425350D02*
X1381500Y1425350D01*
X1408500Y1425350D02*
X1409500Y1425350D01*
X1465500Y1425350D02*
X1467500Y1425350D01*
X1494500Y1425350D02*
X1495500Y1425350D01*
X1551500Y1425350D02*
X1553500Y1425350D01*
X1580500Y1425350D02*
X1581500Y1425350D01*
X1653500Y1425350D02*
X1656500Y1425350D01*
X1033500Y1424350D02*
X1036500Y1424350D01*
X1122500Y1424350D02*
X1123500Y1424350D01*
X1150500Y1424350D02*
X1152500Y1424350D01*
X1208500Y1424350D02*
X1209500Y1424350D01*
X1236500Y1424350D02*
X1238500Y1424350D01*
X1294500Y1424350D02*
X1295500Y1424350D01*
X1322500Y1424350D02*
X1324500Y1424350D01*
X1379500Y1424350D02*
X1381500Y1424350D01*
X1408500Y1424350D02*
X1409500Y1424350D01*
X1465500Y1424350D02*
X1467500Y1424350D01*
X1494500Y1424350D02*
X1495500Y1424350D01*
X1551500Y1424350D02*
X1553500Y1424350D01*
X1580500Y1424350D02*
X1581500Y1424350D01*
X1653500Y1424350D02*
X1656500Y1424350D01*
X1033500Y1423350D02*
X1036500Y1423350D01*
X1122500Y1423350D02*
X1123500Y1423350D01*
X1150500Y1423350D02*
X1152500Y1423350D01*
X1208500Y1423350D02*
X1209500Y1423350D01*
X1236500Y1423350D02*
X1238500Y1423350D01*
X1294500Y1423350D02*
X1295500Y1423350D01*
X1322500Y1423350D02*
X1324500Y1423350D01*
X1379500Y1423350D02*
X1381500Y1423350D01*
X1408500Y1423350D02*
X1409500Y1423350D01*
X1465500Y1423350D02*
X1467500Y1423350D01*
X1494500Y1423350D02*
X1495500Y1423350D01*
X1551500Y1423350D02*
X1553500Y1423350D01*
X1580500Y1423350D02*
X1581500Y1423350D01*
X1653500Y1423350D02*
X1656500Y1423350D01*
X1033500Y1422350D02*
X1036500Y1422350D01*
X1122500Y1422350D02*
X1123500Y1422350D01*
X1150500Y1422350D02*
X1152500Y1422350D01*
X1208500Y1422350D02*
X1209500Y1422350D01*
X1236500Y1422350D02*
X1238500Y1422350D01*
X1294500Y1422350D02*
X1295500Y1422350D01*
X1322500Y1422350D02*
X1324500Y1422350D01*
X1379500Y1422350D02*
X1381500Y1422350D01*
X1408500Y1422350D02*
X1409500Y1422350D01*
X1465500Y1422350D02*
X1467500Y1422350D01*
X1494500Y1422350D02*
X1495500Y1422350D01*
X1551500Y1422350D02*
X1553500Y1422350D01*
X1580500Y1422350D02*
X1581500Y1422350D01*
X1653500Y1422350D02*
X1656500Y1422350D01*
X1033500Y1421350D02*
X1036500Y1421350D01*
X1122500Y1421350D02*
X1123500Y1421350D01*
X1150500Y1421350D02*
X1152500Y1421350D01*
X1208500Y1421350D02*
X1209500Y1421350D01*
X1236500Y1421350D02*
X1238500Y1421350D01*
X1294500Y1421350D02*
X1295500Y1421350D01*
X1322500Y1421350D02*
X1324500Y1421350D01*
X1379500Y1421350D02*
X1381500Y1421350D01*
X1408500Y1421350D02*
X1409500Y1421350D01*
X1465500Y1421350D02*
X1467500Y1421350D01*
X1494500Y1421350D02*
X1495500Y1421350D01*
X1551500Y1421350D02*
X1553500Y1421350D01*
X1580500Y1421350D02*
X1581500Y1421350D01*
X1653500Y1421350D02*
X1656500Y1421350D01*
X1033500Y1420350D02*
X1036500Y1420350D01*
X1122500Y1420350D02*
X1123500Y1420350D01*
X1150500Y1420350D02*
X1152500Y1420350D01*
X1208500Y1420350D02*
X1209500Y1420350D01*
X1236500Y1420350D02*
X1238500Y1420350D01*
X1294500Y1420350D02*
X1295500Y1420350D01*
X1322500Y1420350D02*
X1324500Y1420350D01*
X1379500Y1420350D02*
X1381500Y1420350D01*
X1408500Y1420350D02*
X1409500Y1420350D01*
X1465500Y1420350D02*
X1467500Y1420350D01*
X1494500Y1420350D02*
X1495500Y1420350D01*
X1551500Y1420350D02*
X1553500Y1420350D01*
X1580500Y1420350D02*
X1581500Y1420350D01*
X1653500Y1420350D02*
X1656500Y1420350D01*
X1033500Y1419350D02*
X1036500Y1419350D01*
X1122500Y1419350D02*
X1123500Y1419350D01*
X1150500Y1419350D02*
X1152500Y1419350D01*
X1208500Y1419350D02*
X1209500Y1419350D01*
X1236500Y1419350D02*
X1238500Y1419350D01*
X1294500Y1419350D02*
X1295500Y1419350D01*
X1322500Y1419350D02*
X1324500Y1419350D01*
X1379500Y1419350D02*
X1381500Y1419350D01*
X1408500Y1419350D02*
X1409500Y1419350D01*
X1465500Y1419350D02*
X1467500Y1419350D01*
X1494500Y1419350D02*
X1495500Y1419350D01*
X1551500Y1419350D02*
X1553500Y1419350D01*
X1580500Y1419350D02*
X1581500Y1419350D01*
X1653500Y1419350D02*
X1656500Y1419350D01*
X1033500Y1418350D02*
X1036500Y1418350D01*
X1122500Y1418350D02*
X1123500Y1418350D01*
X1150500Y1418350D02*
X1152500Y1418350D01*
X1208500Y1418350D02*
X1209500Y1418350D01*
X1236500Y1418350D02*
X1238500Y1418350D01*
X1294500Y1418350D02*
X1295500Y1418350D01*
X1322500Y1418350D02*
X1324500Y1418350D01*
X1379500Y1418350D02*
X1381500Y1418350D01*
X1408500Y1418350D02*
X1409500Y1418350D01*
X1465500Y1418350D02*
X1467500Y1418350D01*
X1494500Y1418350D02*
X1495500Y1418350D01*
X1551500Y1418350D02*
X1553500Y1418350D01*
X1580500Y1418350D02*
X1581500Y1418350D01*
X1653500Y1418350D02*
X1656500Y1418350D01*
X1033500Y1417350D02*
X1036500Y1417350D01*
X1122500Y1417350D02*
X1123500Y1417350D01*
X1150500Y1417350D02*
X1152500Y1417350D01*
X1208500Y1417350D02*
X1209500Y1417350D01*
X1236500Y1417350D02*
X1238500Y1417350D01*
X1294500Y1417350D02*
X1295500Y1417350D01*
X1322500Y1417350D02*
X1324500Y1417350D01*
X1379500Y1417350D02*
X1381500Y1417350D01*
X1408500Y1417350D02*
X1409500Y1417350D01*
X1465500Y1417350D02*
X1467500Y1417350D01*
X1494500Y1417350D02*
X1495500Y1417350D01*
X1551500Y1417350D02*
X1553500Y1417350D01*
X1580500Y1417350D02*
X1581500Y1417350D01*
X1653500Y1417350D02*
X1656500Y1417350D01*
X1033500Y1416350D02*
X1036500Y1416350D01*
X1122500Y1416350D02*
X1123500Y1416350D01*
X1150500Y1416350D02*
X1152500Y1416350D01*
X1208500Y1416350D02*
X1209500Y1416350D01*
X1236500Y1416350D02*
X1238500Y1416350D01*
X1294500Y1416350D02*
X1295500Y1416350D01*
X1322500Y1416350D02*
X1324500Y1416350D01*
X1379500Y1416350D02*
X1381500Y1416350D01*
X1408500Y1416350D02*
X1409500Y1416350D01*
X1465500Y1416350D02*
X1467500Y1416350D01*
X1494500Y1416350D02*
X1495500Y1416350D01*
X1551500Y1416350D02*
X1553500Y1416350D01*
X1580500Y1416350D02*
X1581500Y1416350D01*
X1653500Y1416350D02*
X1656500Y1416350D01*
X1033500Y1415350D02*
X1036500Y1415350D01*
X1122500Y1415350D02*
X1123500Y1415350D01*
X1150500Y1415350D02*
X1152500Y1415350D01*
X1208500Y1415350D02*
X1209500Y1415350D01*
X1236500Y1415350D02*
X1238500Y1415350D01*
X1294500Y1415350D02*
X1295500Y1415350D01*
X1322500Y1415350D02*
X1324500Y1415350D01*
X1379500Y1415350D02*
X1381500Y1415350D01*
X1408500Y1415350D02*
X1409500Y1415350D01*
X1465500Y1415350D02*
X1467500Y1415350D01*
X1494500Y1415350D02*
X1495500Y1415350D01*
X1551500Y1415350D02*
X1553500Y1415350D01*
X1580500Y1415350D02*
X1581500Y1415350D01*
X1653500Y1415350D02*
X1656500Y1415350D01*
X1033500Y1414350D02*
X1036500Y1414350D01*
X1122500Y1414350D02*
X1123500Y1414350D01*
X1150500Y1414350D02*
X1152500Y1414350D01*
X1208500Y1414350D02*
X1209500Y1414350D01*
X1236500Y1414350D02*
X1238500Y1414350D01*
X1294500Y1414350D02*
X1295500Y1414350D01*
X1322500Y1414350D02*
X1324500Y1414350D01*
X1379500Y1414350D02*
X1381500Y1414350D01*
X1408500Y1414350D02*
X1409500Y1414350D01*
X1465500Y1414350D02*
X1467500Y1414350D01*
X1494500Y1414350D02*
X1495500Y1414350D01*
X1551500Y1414350D02*
X1553500Y1414350D01*
X1580500Y1414350D02*
X1581500Y1414350D01*
X1653500Y1414350D02*
X1656500Y1414350D01*
X1033500Y1413350D02*
X1036500Y1413350D01*
X1122500Y1413350D02*
X1123500Y1413350D01*
X1150500Y1413350D02*
X1152500Y1413350D01*
X1208500Y1413350D02*
X1209500Y1413350D01*
X1236500Y1413350D02*
X1238500Y1413350D01*
X1294500Y1413350D02*
X1295500Y1413350D01*
X1322500Y1413350D02*
X1324500Y1413350D01*
X1379500Y1413350D02*
X1381500Y1413350D01*
X1408500Y1413350D02*
X1409500Y1413350D01*
X1465500Y1413350D02*
X1467500Y1413350D01*
X1494500Y1413350D02*
X1495500Y1413350D01*
X1551500Y1413350D02*
X1553500Y1413350D01*
X1580500Y1413350D02*
X1581500Y1413350D01*
X1653500Y1413350D02*
X1656500Y1413350D01*
X1033500Y1412350D02*
X1036500Y1412350D01*
X1122500Y1412350D02*
X1123500Y1412350D01*
X1150500Y1412350D02*
X1152500Y1412350D01*
X1208500Y1412350D02*
X1209500Y1412350D01*
X1236500Y1412350D02*
X1238500Y1412350D01*
X1294500Y1412350D02*
X1295500Y1412350D01*
X1322500Y1412350D02*
X1324500Y1412350D01*
X1379500Y1412350D02*
X1381500Y1412350D01*
X1408500Y1412350D02*
X1409500Y1412350D01*
X1465500Y1412350D02*
X1467500Y1412350D01*
X1494500Y1412350D02*
X1495500Y1412350D01*
X1551500Y1412350D02*
X1553500Y1412350D01*
X1580500Y1412350D02*
X1581500Y1412350D01*
X1653500Y1412350D02*
X1656500Y1412350D01*
X1033500Y1411350D02*
X1036500Y1411350D01*
X1122500Y1411350D02*
X1123500Y1411350D01*
X1150500Y1411350D02*
X1152500Y1411350D01*
X1208500Y1411350D02*
X1209500Y1411350D01*
X1236500Y1411350D02*
X1238500Y1411350D01*
X1294500Y1411350D02*
X1295500Y1411350D01*
X1322500Y1411350D02*
X1324500Y1411350D01*
X1379500Y1411350D02*
X1381500Y1411350D01*
X1408500Y1411350D02*
X1409500Y1411350D01*
X1465500Y1411350D02*
X1467500Y1411350D01*
X1494500Y1411350D02*
X1495500Y1411350D01*
X1551500Y1411350D02*
X1553500Y1411350D01*
X1580500Y1411350D02*
X1581500Y1411350D01*
X1653500Y1411350D02*
X1656500Y1411350D01*
X1033500Y1410350D02*
X1036500Y1410350D01*
X1122500Y1410350D02*
X1123500Y1410350D01*
X1150500Y1410350D02*
X1152500Y1410350D01*
X1208500Y1410350D02*
X1209500Y1410350D01*
X1236500Y1410350D02*
X1238500Y1410350D01*
X1294500Y1410350D02*
X1295500Y1410350D01*
X1322500Y1410350D02*
X1324500Y1410350D01*
X1379500Y1410350D02*
X1381500Y1410350D01*
X1408500Y1410350D02*
X1409500Y1410350D01*
X1465500Y1410350D02*
X1467500Y1410350D01*
X1494500Y1410350D02*
X1495500Y1410350D01*
X1551500Y1410350D02*
X1553500Y1410350D01*
X1580500Y1410350D02*
X1581500Y1410350D01*
X1653500Y1410350D02*
X1656500Y1410350D01*
X1033500Y1409350D02*
X1036500Y1409350D01*
X1122500Y1409350D02*
X1123500Y1409350D01*
X1150500Y1409350D02*
X1152500Y1409350D01*
X1208500Y1409350D02*
X1209500Y1409350D01*
X1236500Y1409350D02*
X1238500Y1409350D01*
X1294500Y1409350D02*
X1295500Y1409350D01*
X1322500Y1409350D02*
X1324500Y1409350D01*
X1379500Y1409350D02*
X1381500Y1409350D01*
X1408500Y1409350D02*
X1409500Y1409350D01*
X1465500Y1409350D02*
X1467500Y1409350D01*
X1494500Y1409350D02*
X1495500Y1409350D01*
X1551500Y1409350D02*
X1553500Y1409350D01*
X1580500Y1409350D02*
X1581500Y1409350D01*
X1653500Y1409350D02*
X1656500Y1409350D01*
X1033500Y1408350D02*
X1036500Y1408350D01*
X1122500Y1408350D02*
X1123500Y1408350D01*
X1150500Y1408350D02*
X1152500Y1408350D01*
X1208500Y1408350D02*
X1209500Y1408350D01*
X1236500Y1408350D02*
X1238500Y1408350D01*
X1294500Y1408350D02*
X1295500Y1408350D01*
X1322500Y1408350D02*
X1324500Y1408350D01*
X1379500Y1408350D02*
X1381500Y1408350D01*
X1408500Y1408350D02*
X1409500Y1408350D01*
X1465500Y1408350D02*
X1467500Y1408350D01*
X1494500Y1408350D02*
X1495500Y1408350D01*
X1551500Y1408350D02*
X1553500Y1408350D01*
X1580500Y1408350D02*
X1581500Y1408350D01*
X1653500Y1408350D02*
X1656500Y1408350D01*
X1033500Y1407350D02*
X1036500Y1407350D01*
X1122500Y1407350D02*
X1123500Y1407350D01*
X1150500Y1407350D02*
X1152500Y1407350D01*
X1208500Y1407350D02*
X1209500Y1407350D01*
X1236500Y1407350D02*
X1238500Y1407350D01*
X1294500Y1407350D02*
X1295500Y1407350D01*
X1322500Y1407350D02*
X1324500Y1407350D01*
X1379500Y1407350D02*
X1381500Y1407350D01*
X1408500Y1407350D02*
X1409500Y1407350D01*
X1465500Y1407350D02*
X1467500Y1407350D01*
X1494500Y1407350D02*
X1495500Y1407350D01*
X1551500Y1407350D02*
X1553500Y1407350D01*
X1580500Y1407350D02*
X1581500Y1407350D01*
X1653500Y1407350D02*
X1656500Y1407350D01*
X1033500Y1406350D02*
X1036500Y1406350D01*
X1122500Y1406350D02*
X1123500Y1406350D01*
X1150500Y1406350D02*
X1152500Y1406350D01*
X1208500Y1406350D02*
X1209500Y1406350D01*
X1236500Y1406350D02*
X1238500Y1406350D01*
X1294500Y1406350D02*
X1295500Y1406350D01*
X1322500Y1406350D02*
X1324500Y1406350D01*
X1379500Y1406350D02*
X1381500Y1406350D01*
X1408500Y1406350D02*
X1409500Y1406350D01*
X1465500Y1406350D02*
X1467500Y1406350D01*
X1494500Y1406350D02*
X1495500Y1406350D01*
X1551500Y1406350D02*
X1553500Y1406350D01*
X1580500Y1406350D02*
X1581500Y1406350D01*
X1653500Y1406350D02*
X1656500Y1406350D01*
X1033500Y1405350D02*
X1036500Y1405350D01*
X1122500Y1405350D02*
X1123500Y1405350D01*
X1150500Y1405350D02*
X1152500Y1405350D01*
X1208500Y1405350D02*
X1209500Y1405350D01*
X1236500Y1405350D02*
X1238500Y1405350D01*
X1294500Y1405350D02*
X1295500Y1405350D01*
X1322500Y1405350D02*
X1324500Y1405350D01*
X1379500Y1405350D02*
X1381500Y1405350D01*
X1408500Y1405350D02*
X1409500Y1405350D01*
X1465500Y1405350D02*
X1467500Y1405350D01*
X1494500Y1405350D02*
X1495500Y1405350D01*
X1551500Y1405350D02*
X1553500Y1405350D01*
X1580500Y1405350D02*
X1581500Y1405350D01*
X1653500Y1405350D02*
X1656500Y1405350D01*
X1033500Y1404350D02*
X1036500Y1404350D01*
X1122500Y1404350D02*
X1123500Y1404350D01*
X1150500Y1404350D02*
X1152500Y1404350D01*
X1208500Y1404350D02*
X1209500Y1404350D01*
X1236500Y1404350D02*
X1238500Y1404350D01*
X1294500Y1404350D02*
X1295500Y1404350D01*
X1322500Y1404350D02*
X1324500Y1404350D01*
X1379500Y1404350D02*
X1381500Y1404350D01*
X1408500Y1404350D02*
X1409500Y1404350D01*
X1465500Y1404350D02*
X1467500Y1404350D01*
X1494500Y1404350D02*
X1495500Y1404350D01*
X1551500Y1404350D02*
X1553500Y1404350D01*
X1580500Y1404350D02*
X1581500Y1404350D01*
X1653500Y1404350D02*
X1656500Y1404350D01*
X1033500Y1403350D02*
X1036500Y1403350D01*
X1122500Y1403350D02*
X1123500Y1403350D01*
X1150500Y1403350D02*
X1152500Y1403350D01*
X1208500Y1403350D02*
X1209500Y1403350D01*
X1236500Y1403350D02*
X1238500Y1403350D01*
X1294500Y1403350D02*
X1295500Y1403350D01*
X1322500Y1403350D02*
X1324500Y1403350D01*
X1379500Y1403350D02*
X1381500Y1403350D01*
X1408500Y1403350D02*
X1409500Y1403350D01*
X1465500Y1403350D02*
X1467500Y1403350D01*
X1494500Y1403350D02*
X1495500Y1403350D01*
X1551500Y1403350D02*
X1553500Y1403350D01*
X1580500Y1403350D02*
X1581500Y1403350D01*
X1653500Y1403350D02*
X1656500Y1403350D01*
X1033500Y1402350D02*
X1036500Y1402350D01*
X1122500Y1402350D02*
X1123500Y1402350D01*
X1150500Y1402350D02*
X1152500Y1402350D01*
X1208500Y1402350D02*
X1209500Y1402350D01*
X1236500Y1402350D02*
X1238500Y1402350D01*
X1294500Y1402350D02*
X1295500Y1402350D01*
X1322500Y1402350D02*
X1324500Y1402350D01*
X1379500Y1402350D02*
X1381500Y1402350D01*
X1408500Y1402350D02*
X1409500Y1402350D01*
X1465500Y1402350D02*
X1467500Y1402350D01*
X1494500Y1402350D02*
X1495500Y1402350D01*
X1551500Y1402350D02*
X1553500Y1402350D01*
X1580500Y1402350D02*
X1581500Y1402350D01*
X1653500Y1402350D02*
X1656500Y1402350D01*
X1033500Y1401350D02*
X1036500Y1401350D01*
X1122500Y1401350D02*
X1123500Y1401350D01*
X1150500Y1401350D02*
X1152500Y1401350D01*
X1208500Y1401350D02*
X1209500Y1401350D01*
X1236500Y1401350D02*
X1238500Y1401350D01*
X1294500Y1401350D02*
X1295500Y1401350D01*
X1322500Y1401350D02*
X1324500Y1401350D01*
X1379500Y1401350D02*
X1381500Y1401350D01*
X1408500Y1401350D02*
X1409500Y1401350D01*
X1465500Y1401350D02*
X1467500Y1401350D01*
X1494500Y1401350D02*
X1495500Y1401350D01*
X1551500Y1401350D02*
X1553500Y1401350D01*
X1580500Y1401350D02*
X1581500Y1401350D01*
X1653500Y1401350D02*
X1656500Y1401350D01*
X1033500Y1400350D02*
X1036500Y1400350D01*
X1122500Y1400350D02*
X1123500Y1400350D01*
X1150500Y1400350D02*
X1152500Y1400350D01*
X1208500Y1400350D02*
X1209500Y1400350D01*
X1236500Y1400350D02*
X1238500Y1400350D01*
X1294500Y1400350D02*
X1295500Y1400350D01*
X1322500Y1400350D02*
X1324500Y1400350D01*
X1379500Y1400350D02*
X1381500Y1400350D01*
X1408500Y1400350D02*
X1409500Y1400350D01*
X1465500Y1400350D02*
X1467500Y1400350D01*
X1494500Y1400350D02*
X1495500Y1400350D01*
X1551500Y1400350D02*
X1553500Y1400350D01*
X1580500Y1400350D02*
X1581500Y1400350D01*
X1653500Y1400350D02*
X1656500Y1400350D01*
X1033500Y1399350D02*
X1036500Y1399350D01*
X1122500Y1399350D02*
X1123500Y1399350D01*
X1150500Y1399350D02*
X1152500Y1399350D01*
X1208500Y1399350D02*
X1209500Y1399350D01*
X1236500Y1399350D02*
X1238500Y1399350D01*
X1294500Y1399350D02*
X1295500Y1399350D01*
X1322500Y1399350D02*
X1324500Y1399350D01*
X1379500Y1399350D02*
X1381500Y1399350D01*
X1408500Y1399350D02*
X1409500Y1399350D01*
X1465500Y1399350D02*
X1467500Y1399350D01*
X1494500Y1399350D02*
X1495500Y1399350D01*
X1551500Y1399350D02*
X1553500Y1399350D01*
X1580500Y1399350D02*
X1581500Y1399350D01*
X1653500Y1399350D02*
X1656500Y1399350D01*
X1033500Y1398350D02*
X1036500Y1398350D01*
X1122500Y1398350D02*
X1123500Y1398350D01*
X1150500Y1398350D02*
X1152500Y1398350D01*
X1208500Y1398350D02*
X1209500Y1398350D01*
X1236500Y1398350D02*
X1238500Y1398350D01*
X1294500Y1398350D02*
X1295500Y1398350D01*
X1322500Y1398350D02*
X1324500Y1398350D01*
X1379500Y1398350D02*
X1381500Y1398350D01*
X1408500Y1398350D02*
X1409500Y1398350D01*
X1465500Y1398350D02*
X1467500Y1398350D01*
X1494500Y1398350D02*
X1495500Y1398350D01*
X1551500Y1398350D02*
X1553500Y1398350D01*
X1580500Y1398350D02*
X1581500Y1398350D01*
X1653500Y1398350D02*
X1656500Y1398350D01*
X1033500Y1397350D02*
X1036500Y1397350D01*
X1122500Y1397350D02*
X1123500Y1397350D01*
X1150500Y1397350D02*
X1152500Y1397350D01*
X1208500Y1397350D02*
X1209500Y1397350D01*
X1236500Y1397350D02*
X1238500Y1397350D01*
X1294500Y1397350D02*
X1295500Y1397350D01*
X1322500Y1397350D02*
X1324500Y1397350D01*
X1379500Y1397350D02*
X1381500Y1397350D01*
X1408500Y1397350D02*
X1409500Y1397350D01*
X1465500Y1397350D02*
X1467500Y1397350D01*
X1494500Y1397350D02*
X1495500Y1397350D01*
X1551500Y1397350D02*
X1553500Y1397350D01*
X1580500Y1397350D02*
X1581500Y1397350D01*
X1653500Y1397350D02*
X1656500Y1397350D01*
X1033500Y1396350D02*
X1036500Y1396350D01*
X1122500Y1396350D02*
X1123500Y1396350D01*
X1150500Y1396350D02*
X1152500Y1396350D01*
X1208500Y1396350D02*
X1209500Y1396350D01*
X1236500Y1396350D02*
X1238500Y1396350D01*
X1294500Y1396350D02*
X1295500Y1396350D01*
X1322500Y1396350D02*
X1324500Y1396350D01*
X1379500Y1396350D02*
X1381500Y1396350D01*
X1408500Y1396350D02*
X1409500Y1396350D01*
X1465500Y1396350D02*
X1467500Y1396350D01*
X1494500Y1396350D02*
X1495500Y1396350D01*
X1551500Y1396350D02*
X1553500Y1396350D01*
X1580500Y1396350D02*
X1581500Y1396350D01*
X1653500Y1396350D02*
X1656500Y1396350D01*
X1033500Y1395350D02*
X1036500Y1395350D01*
X1122500Y1395350D02*
X1123500Y1395350D01*
X1150500Y1395350D02*
X1152500Y1395350D01*
X1208500Y1395350D02*
X1209500Y1395350D01*
X1236500Y1395350D02*
X1238500Y1395350D01*
X1294500Y1395350D02*
X1295500Y1395350D01*
X1322500Y1395350D02*
X1324500Y1395350D01*
X1379500Y1395350D02*
X1381500Y1395350D01*
X1408500Y1395350D02*
X1409500Y1395350D01*
X1465500Y1395350D02*
X1467500Y1395350D01*
X1494500Y1395350D02*
X1495500Y1395350D01*
X1551500Y1395350D02*
X1553500Y1395350D01*
X1580500Y1395350D02*
X1581500Y1395350D01*
X1653500Y1395350D02*
X1656500Y1395350D01*
X1033500Y1394350D02*
X1036500Y1394350D01*
X1122500Y1394350D02*
X1123500Y1394350D01*
X1150500Y1394350D02*
X1152500Y1394350D01*
X1208500Y1394350D02*
X1209500Y1394350D01*
X1236500Y1394350D02*
X1238500Y1394350D01*
X1294500Y1394350D02*
X1295500Y1394350D01*
X1322500Y1394350D02*
X1324500Y1394350D01*
X1379500Y1394350D02*
X1381500Y1394350D01*
X1408500Y1394350D02*
X1409500Y1394350D01*
X1465500Y1394350D02*
X1467500Y1394350D01*
X1494500Y1394350D02*
X1495500Y1394350D01*
X1551500Y1394350D02*
X1553500Y1394350D01*
X1580500Y1394350D02*
X1581500Y1394350D01*
X1653500Y1394350D02*
X1656500Y1394350D01*
X1033500Y1393350D02*
X1036500Y1393350D01*
X1122500Y1393350D02*
X1123500Y1393350D01*
X1150500Y1393350D02*
X1152500Y1393350D01*
X1208500Y1393350D02*
X1209500Y1393350D01*
X1236500Y1393350D02*
X1238500Y1393350D01*
X1294500Y1393350D02*
X1295500Y1393350D01*
X1322500Y1393350D02*
X1324500Y1393350D01*
X1379500Y1393350D02*
X1381500Y1393350D01*
X1408500Y1393350D02*
X1409500Y1393350D01*
X1465500Y1393350D02*
X1467500Y1393350D01*
X1494500Y1393350D02*
X1495500Y1393350D01*
X1551500Y1393350D02*
X1553500Y1393350D01*
X1580500Y1393350D02*
X1581500Y1393350D01*
X1653500Y1393350D02*
X1656500Y1393350D01*
X1033500Y1392350D02*
X1036500Y1392350D01*
X1122500Y1392350D02*
X1123500Y1392350D01*
X1150500Y1392350D02*
X1152500Y1392350D01*
X1208500Y1392350D02*
X1209500Y1392350D01*
X1236500Y1392350D02*
X1238500Y1392350D01*
X1294500Y1392350D02*
X1295500Y1392350D01*
X1322500Y1392350D02*
X1324500Y1392350D01*
X1379500Y1392350D02*
X1381500Y1392350D01*
X1408500Y1392350D02*
X1409500Y1392350D01*
X1465500Y1392350D02*
X1467500Y1392350D01*
X1494500Y1392350D02*
X1495500Y1392350D01*
X1551500Y1392350D02*
X1553500Y1392350D01*
X1580500Y1392350D02*
X1581500Y1392350D01*
X1653500Y1392350D02*
X1656500Y1392350D01*
X1033500Y1391350D02*
X1036500Y1391350D01*
X1122500Y1391350D02*
X1123500Y1391350D01*
X1150500Y1391350D02*
X1152500Y1391350D01*
X1208500Y1391350D02*
X1209500Y1391350D01*
X1236500Y1391350D02*
X1238500Y1391350D01*
X1294500Y1391350D02*
X1295500Y1391350D01*
X1322500Y1391350D02*
X1324500Y1391350D01*
X1379500Y1391350D02*
X1381500Y1391350D01*
X1408500Y1391350D02*
X1409500Y1391350D01*
X1465500Y1391350D02*
X1467500Y1391350D01*
X1494500Y1391350D02*
X1495500Y1391350D01*
X1551500Y1391350D02*
X1553500Y1391350D01*
X1580500Y1391350D02*
X1581500Y1391350D01*
X1653500Y1391350D02*
X1656500Y1391350D01*
X1033500Y1390350D02*
X1036500Y1390350D01*
X1122500Y1390350D02*
X1123500Y1390350D01*
X1150500Y1390350D02*
X1152500Y1390350D01*
X1208500Y1390350D02*
X1209500Y1390350D01*
X1236500Y1390350D02*
X1238500Y1390350D01*
X1294500Y1390350D02*
X1295500Y1390350D01*
X1322500Y1390350D02*
X1324500Y1390350D01*
X1379500Y1390350D02*
X1381500Y1390350D01*
X1408500Y1390350D02*
X1409500Y1390350D01*
X1465500Y1390350D02*
X1467500Y1390350D01*
X1494500Y1390350D02*
X1495500Y1390350D01*
X1551500Y1390350D02*
X1553500Y1390350D01*
X1580500Y1390350D02*
X1581500Y1390350D01*
X1653500Y1390350D02*
X1656500Y1390350D01*
X1033500Y1389350D02*
X1036500Y1389350D01*
X1122500Y1389350D02*
X1123500Y1389350D01*
X1150500Y1389350D02*
X1152500Y1389350D01*
X1208500Y1389350D02*
X1209500Y1389350D01*
X1236500Y1389350D02*
X1238500Y1389350D01*
X1294500Y1389350D02*
X1295500Y1389350D01*
X1322500Y1389350D02*
X1324500Y1389350D01*
X1379500Y1389350D02*
X1381500Y1389350D01*
X1408500Y1389350D02*
X1409500Y1389350D01*
X1465500Y1389350D02*
X1467500Y1389350D01*
X1494500Y1389350D02*
X1495500Y1389350D01*
X1551500Y1389350D02*
X1553500Y1389350D01*
X1580500Y1389350D02*
X1581500Y1389350D01*
X1653500Y1389350D02*
X1656500Y1389350D01*
X1033500Y1388350D02*
X1036500Y1388350D01*
X1122500Y1388350D02*
X1123500Y1388350D01*
X1150500Y1388350D02*
X1152500Y1388350D01*
X1208500Y1388350D02*
X1209500Y1388350D01*
X1236500Y1388350D02*
X1238500Y1388350D01*
X1294500Y1388350D02*
X1295500Y1388350D01*
X1322500Y1388350D02*
X1324500Y1388350D01*
X1379500Y1388350D02*
X1381500Y1388350D01*
X1408500Y1388350D02*
X1409500Y1388350D01*
X1465500Y1388350D02*
X1467500Y1388350D01*
X1494500Y1388350D02*
X1495500Y1388350D01*
X1551500Y1388350D02*
X1553500Y1388350D01*
X1580500Y1388350D02*
X1581500Y1388350D01*
X1653500Y1388350D02*
X1656500Y1388350D01*
X1033500Y1387350D02*
X1036500Y1387350D01*
X1122500Y1387350D02*
X1123500Y1387350D01*
X1150500Y1387350D02*
X1152500Y1387350D01*
X1208500Y1387350D02*
X1209500Y1387350D01*
X1236500Y1387350D02*
X1238500Y1387350D01*
X1294500Y1387350D02*
X1295500Y1387350D01*
X1322500Y1387350D02*
X1324500Y1387350D01*
X1379500Y1387350D02*
X1381500Y1387350D01*
X1408500Y1387350D02*
X1409500Y1387350D01*
X1465500Y1387350D02*
X1467500Y1387350D01*
X1494500Y1387350D02*
X1495500Y1387350D01*
X1551500Y1387350D02*
X1553500Y1387350D01*
X1580500Y1387350D02*
X1581500Y1387350D01*
X1653500Y1387350D02*
X1656500Y1387350D01*
X1033500Y1386350D02*
X1036500Y1386350D01*
X1122500Y1386350D02*
X1123500Y1386350D01*
X1150500Y1386350D02*
X1152500Y1386350D01*
X1208500Y1386350D02*
X1209500Y1386350D01*
X1236500Y1386350D02*
X1238500Y1386350D01*
X1294500Y1386350D02*
X1295500Y1386350D01*
X1322500Y1386350D02*
X1324500Y1386350D01*
X1379500Y1386350D02*
X1381500Y1386350D01*
X1408500Y1386350D02*
X1409500Y1386350D01*
X1465500Y1386350D02*
X1467500Y1386350D01*
X1494500Y1386350D02*
X1495500Y1386350D01*
X1551500Y1386350D02*
X1553500Y1386350D01*
X1580500Y1386350D02*
X1581500Y1386350D01*
X1653500Y1386350D02*
X1656500Y1386350D01*
X1033500Y1385350D02*
X1036500Y1385350D01*
X1122500Y1385350D02*
X1123500Y1385350D01*
X1150500Y1385350D02*
X1152500Y1385350D01*
X1208500Y1385350D02*
X1209500Y1385350D01*
X1236500Y1385350D02*
X1238500Y1385350D01*
X1294500Y1385350D02*
X1295500Y1385350D01*
X1322500Y1385350D02*
X1324500Y1385350D01*
X1379500Y1385350D02*
X1381500Y1385350D01*
X1408500Y1385350D02*
X1409500Y1385350D01*
X1465500Y1385350D02*
X1467500Y1385350D01*
X1494500Y1385350D02*
X1495500Y1385350D01*
X1551500Y1385350D02*
X1553500Y1385350D01*
X1580500Y1385350D02*
X1581500Y1385350D01*
X1653500Y1385350D02*
X1656500Y1385350D01*
X1033500Y1384350D02*
X1036500Y1384350D01*
X1122500Y1384350D02*
X1123500Y1384350D01*
X1150500Y1384350D02*
X1152500Y1384350D01*
X1208500Y1384350D02*
X1209500Y1384350D01*
X1236500Y1384350D02*
X1238500Y1384350D01*
X1294500Y1384350D02*
X1295500Y1384350D01*
X1322500Y1384350D02*
X1324500Y1384350D01*
X1379500Y1384350D02*
X1381500Y1384350D01*
X1408500Y1384350D02*
X1409500Y1384350D01*
X1465500Y1384350D02*
X1467500Y1384350D01*
X1494500Y1384350D02*
X1495500Y1384350D01*
X1551500Y1384350D02*
X1553500Y1384350D01*
X1580500Y1384350D02*
X1581500Y1384350D01*
X1653500Y1384350D02*
X1656500Y1384350D01*
X1033500Y1383350D02*
X1036500Y1383350D01*
X1122500Y1383350D02*
X1123500Y1383350D01*
X1150500Y1383350D02*
X1152500Y1383350D01*
X1208500Y1383350D02*
X1209500Y1383350D01*
X1236500Y1383350D02*
X1238500Y1383350D01*
X1294500Y1383350D02*
X1295500Y1383350D01*
X1322500Y1383350D02*
X1324500Y1383350D01*
X1379500Y1383350D02*
X1381500Y1383350D01*
X1408500Y1383350D02*
X1409500Y1383350D01*
X1465500Y1383350D02*
X1467500Y1383350D01*
X1494500Y1383350D02*
X1495500Y1383350D01*
X1551500Y1383350D02*
X1553500Y1383350D01*
X1580500Y1383350D02*
X1581500Y1383350D01*
X1653500Y1383350D02*
X1656500Y1383350D01*
X1033500Y1382350D02*
X1036500Y1382350D01*
X1122500Y1382350D02*
X1123500Y1382350D01*
X1150500Y1382350D02*
X1152500Y1382350D01*
X1208500Y1382350D02*
X1209500Y1382350D01*
X1236500Y1382350D02*
X1238500Y1382350D01*
X1294500Y1382350D02*
X1295500Y1382350D01*
X1322500Y1382350D02*
X1324500Y1382350D01*
X1379500Y1382350D02*
X1381500Y1382350D01*
X1408500Y1382350D02*
X1409500Y1382350D01*
X1465500Y1382350D02*
X1467500Y1382350D01*
X1494500Y1382350D02*
X1495500Y1382350D01*
X1551500Y1382350D02*
X1553500Y1382350D01*
X1580500Y1382350D02*
X1581500Y1382350D01*
X1653500Y1382350D02*
X1656500Y1382350D01*
X1033500Y1381350D02*
X1036500Y1381350D01*
X1122500Y1381350D02*
X1123500Y1381350D01*
X1150500Y1381350D02*
X1152500Y1381350D01*
X1208500Y1381350D02*
X1209500Y1381350D01*
X1236500Y1381350D02*
X1238500Y1381350D01*
X1294500Y1381350D02*
X1295500Y1381350D01*
X1322500Y1381350D02*
X1324500Y1381350D01*
X1379500Y1381350D02*
X1381500Y1381350D01*
X1408500Y1381350D02*
X1409500Y1381350D01*
X1465500Y1381350D02*
X1467500Y1381350D01*
X1494500Y1381350D02*
X1495500Y1381350D01*
X1551500Y1381350D02*
X1553500Y1381350D01*
X1580500Y1381350D02*
X1581500Y1381350D01*
X1653500Y1381350D02*
X1656500Y1381350D01*
X1033500Y1380350D02*
X1036500Y1380350D01*
X1122500Y1380350D02*
X1123500Y1380350D01*
X1150500Y1380350D02*
X1152500Y1380350D01*
X1208500Y1380350D02*
X1209500Y1380350D01*
X1236500Y1380350D02*
X1238500Y1380350D01*
X1294500Y1380350D02*
X1295500Y1380350D01*
X1322500Y1380350D02*
X1324500Y1380350D01*
X1379500Y1380350D02*
X1381500Y1380350D01*
X1408500Y1380350D02*
X1409500Y1380350D01*
X1465500Y1380350D02*
X1467500Y1380350D01*
X1494500Y1380350D02*
X1495500Y1380350D01*
X1551500Y1380350D02*
X1553500Y1380350D01*
X1580500Y1380350D02*
X1581500Y1380350D01*
X1653500Y1380350D02*
X1656500Y1380350D01*
X1033500Y1379350D02*
X1036500Y1379350D01*
X1122500Y1379350D02*
X1123500Y1379350D01*
X1150500Y1379350D02*
X1152500Y1379350D01*
X1208500Y1379350D02*
X1209500Y1379350D01*
X1236500Y1379350D02*
X1238500Y1379350D01*
X1294500Y1379350D02*
X1295500Y1379350D01*
X1322500Y1379350D02*
X1324500Y1379350D01*
X1379500Y1379350D02*
X1381500Y1379350D01*
X1408500Y1379350D02*
X1409500Y1379350D01*
X1465500Y1379350D02*
X1467500Y1379350D01*
X1494500Y1379350D02*
X1495500Y1379350D01*
X1551500Y1379350D02*
X1553500Y1379350D01*
X1580500Y1379350D02*
X1581500Y1379350D01*
X1653500Y1379350D02*
X1656500Y1379350D01*
X1033500Y1378350D02*
X1036500Y1378350D01*
X1122500Y1378350D02*
X1123500Y1378350D01*
X1150500Y1378350D02*
X1152500Y1378350D01*
X1208500Y1378350D02*
X1209500Y1378350D01*
X1236500Y1378350D02*
X1238500Y1378350D01*
X1294500Y1378350D02*
X1295500Y1378350D01*
X1322500Y1378350D02*
X1324500Y1378350D01*
X1379500Y1378350D02*
X1381500Y1378350D01*
X1408500Y1378350D02*
X1409500Y1378350D01*
X1465500Y1378350D02*
X1467500Y1378350D01*
X1494500Y1378350D02*
X1495500Y1378350D01*
X1551500Y1378350D02*
X1553500Y1378350D01*
X1580500Y1378350D02*
X1581500Y1378350D01*
X1653500Y1378350D02*
X1656500Y1378350D01*
X1033500Y1377350D02*
X1036500Y1377350D01*
X1122500Y1377350D02*
X1123500Y1377350D01*
X1150500Y1377350D02*
X1152500Y1377350D01*
X1208500Y1377350D02*
X1209500Y1377350D01*
X1236500Y1377350D02*
X1238500Y1377350D01*
X1294500Y1377350D02*
X1295500Y1377350D01*
X1322500Y1377350D02*
X1324500Y1377350D01*
X1379500Y1377350D02*
X1381500Y1377350D01*
X1408500Y1377350D02*
X1409500Y1377350D01*
X1465500Y1377350D02*
X1467500Y1377350D01*
X1494500Y1377350D02*
X1495500Y1377350D01*
X1551500Y1377350D02*
X1553500Y1377350D01*
X1580500Y1377350D02*
X1581500Y1377350D01*
X1653500Y1377350D02*
X1656500Y1377350D01*
X1033500Y1376350D02*
X1036500Y1376350D01*
X1122500Y1376350D02*
X1123500Y1376350D01*
X1150500Y1376350D02*
X1152500Y1376350D01*
X1208500Y1376350D02*
X1209500Y1376350D01*
X1236500Y1376350D02*
X1238500Y1376350D01*
X1294500Y1376350D02*
X1295500Y1376350D01*
X1322500Y1376350D02*
X1324500Y1376350D01*
X1379500Y1376350D02*
X1381500Y1376350D01*
X1408500Y1376350D02*
X1409500Y1376350D01*
X1465500Y1376350D02*
X1467500Y1376350D01*
X1494500Y1376350D02*
X1495500Y1376350D01*
X1551500Y1376350D02*
X1553500Y1376350D01*
X1580500Y1376350D02*
X1581500Y1376350D01*
X1653500Y1376350D02*
X1656500Y1376350D01*
X1033500Y1375350D02*
X1036500Y1375350D01*
X1122500Y1375350D02*
X1123500Y1375350D01*
X1150500Y1375350D02*
X1152500Y1375350D01*
X1208500Y1375350D02*
X1209500Y1375350D01*
X1236500Y1375350D02*
X1238500Y1375350D01*
X1294500Y1375350D02*
X1295500Y1375350D01*
X1322500Y1375350D02*
X1324500Y1375350D01*
X1379500Y1375350D02*
X1381500Y1375350D01*
X1408500Y1375350D02*
X1409500Y1375350D01*
X1465500Y1375350D02*
X1467500Y1375350D01*
X1494500Y1375350D02*
X1495500Y1375350D01*
X1551500Y1375350D02*
X1553500Y1375350D01*
X1580500Y1375350D02*
X1581500Y1375350D01*
X1653500Y1375350D02*
X1656500Y1375350D01*
X1033500Y1374350D02*
X1036500Y1374350D01*
X1122500Y1374350D02*
X1123500Y1374350D01*
X1150500Y1374350D02*
X1152500Y1374350D01*
X1208500Y1374350D02*
X1209500Y1374350D01*
X1236500Y1374350D02*
X1238500Y1374350D01*
X1294500Y1374350D02*
X1295500Y1374350D01*
X1322500Y1374350D02*
X1324500Y1374350D01*
X1379500Y1374350D02*
X1381500Y1374350D01*
X1408500Y1374350D02*
X1409500Y1374350D01*
X1465500Y1374350D02*
X1467500Y1374350D01*
X1494500Y1374350D02*
X1495500Y1374350D01*
X1551500Y1374350D02*
X1553500Y1374350D01*
X1580500Y1374350D02*
X1581500Y1374350D01*
X1653500Y1374350D02*
X1656500Y1374350D01*
X1033500Y1373350D02*
X1036500Y1373350D01*
X1122500Y1373350D02*
X1123500Y1373350D01*
X1150500Y1373350D02*
X1152500Y1373350D01*
X1208500Y1373350D02*
X1209500Y1373350D01*
X1236500Y1373350D02*
X1238500Y1373350D01*
X1294500Y1373350D02*
X1295500Y1373350D01*
X1322500Y1373350D02*
X1324500Y1373350D01*
X1379500Y1373350D02*
X1381500Y1373350D01*
X1408500Y1373350D02*
X1409500Y1373350D01*
X1465500Y1373350D02*
X1467500Y1373350D01*
X1494500Y1373350D02*
X1495500Y1373350D01*
X1551500Y1373350D02*
X1553500Y1373350D01*
X1580500Y1373350D02*
X1581500Y1373350D01*
X1653500Y1373350D02*
X1656500Y1373350D01*
X1033500Y1372350D02*
X1036500Y1372350D01*
X1122500Y1372350D02*
X1123500Y1372350D01*
X1150500Y1372350D02*
X1152500Y1372350D01*
X1208500Y1372350D02*
X1209500Y1372350D01*
X1236500Y1372350D02*
X1238500Y1372350D01*
X1294500Y1372350D02*
X1295500Y1372350D01*
X1322500Y1372350D02*
X1324500Y1372350D01*
X1379500Y1372350D02*
X1381500Y1372350D01*
X1408500Y1372350D02*
X1409500Y1372350D01*
X1465500Y1372350D02*
X1467500Y1372350D01*
X1494500Y1372350D02*
X1495500Y1372350D01*
X1551500Y1372350D02*
X1553500Y1372350D01*
X1580500Y1372350D02*
X1581500Y1372350D01*
X1653500Y1372350D02*
X1656500Y1372350D01*
X1033500Y1371350D02*
X1036500Y1371350D01*
X1122500Y1371350D02*
X1123500Y1371350D01*
X1150500Y1371350D02*
X1152500Y1371350D01*
X1208500Y1371350D02*
X1209500Y1371350D01*
X1236500Y1371350D02*
X1238500Y1371350D01*
X1294500Y1371350D02*
X1295500Y1371350D01*
X1322500Y1371350D02*
X1324500Y1371350D01*
X1379500Y1371350D02*
X1381500Y1371350D01*
X1408500Y1371350D02*
X1409500Y1371350D01*
X1465500Y1371350D02*
X1467500Y1371350D01*
X1494500Y1371350D02*
X1495500Y1371350D01*
X1551500Y1371350D02*
X1553500Y1371350D01*
X1580500Y1371350D02*
X1581500Y1371350D01*
X1653500Y1371350D02*
X1656500Y1371350D01*
X1033500Y1370350D02*
X1036500Y1370350D01*
X1122500Y1370350D02*
X1123500Y1370350D01*
X1150500Y1370350D02*
X1152500Y1370350D01*
X1208500Y1370350D02*
X1209500Y1370350D01*
X1236500Y1370350D02*
X1238500Y1370350D01*
X1294500Y1370350D02*
X1295500Y1370350D01*
X1322500Y1370350D02*
X1324500Y1370350D01*
X1379500Y1370350D02*
X1381500Y1370350D01*
X1408500Y1370350D02*
X1409500Y1370350D01*
X1465500Y1370350D02*
X1467500Y1370350D01*
X1494500Y1370350D02*
X1495500Y1370350D01*
X1551500Y1370350D02*
X1553500Y1370350D01*
X1580500Y1370350D02*
X1581500Y1370350D01*
X1653500Y1370350D02*
X1656500Y1370350D01*
X1033500Y1369350D02*
X1036500Y1369350D01*
X1122500Y1369350D02*
X1123500Y1369350D01*
X1150500Y1369350D02*
X1152500Y1369350D01*
X1208500Y1369350D02*
X1209500Y1369350D01*
X1236500Y1369350D02*
X1238500Y1369350D01*
X1294500Y1369350D02*
X1295500Y1369350D01*
X1322500Y1369350D02*
X1324500Y1369350D01*
X1379500Y1369350D02*
X1381500Y1369350D01*
X1408500Y1369350D02*
X1409500Y1369350D01*
X1465500Y1369350D02*
X1467500Y1369350D01*
X1494500Y1369350D02*
X1495500Y1369350D01*
X1551500Y1369350D02*
X1553500Y1369350D01*
X1580500Y1369350D02*
X1581500Y1369350D01*
X1653500Y1369350D02*
X1656500Y1369350D01*
X1033500Y1368350D02*
X1036500Y1368350D01*
X1122500Y1368350D02*
X1152500Y1368350D01*
X1208500Y1368350D02*
X1237500Y1368350D01*
X1294500Y1368350D02*
X1323500Y1368350D01*
X1380500Y1368350D02*
X1409500Y1368350D01*
X1466500Y1368350D02*
X1495500Y1368350D01*
X1551500Y1368350D02*
X1581500Y1368350D01*
X1653500Y1368350D02*
X1656500Y1368350D01*
X1033500Y1367350D02*
X1036500Y1367350D01*
X1123500Y1367350D02*
X1151500Y1367350D01*
X1209500Y1367350D02*
X1237500Y1367350D01*
X1295500Y1367350D02*
X1323500Y1367350D01*
X1380500Y1367350D02*
X1408500Y1367350D01*
X1466500Y1367350D02*
X1494500Y1367350D01*
X1552500Y1367350D02*
X1580500Y1367350D01*
X1653500Y1367350D02*
X1656500Y1367350D01*
X1033500Y1366350D02*
X1036500Y1366350D01*
X1124500Y1366350D02*
X1150500Y1366350D01*
X1210500Y1366350D02*
X1235500Y1366350D01*
X1296500Y1366350D02*
X1321500Y1366350D01*
X1382500Y1366350D02*
X1407500Y1366350D01*
X1468500Y1366350D02*
X1493500Y1366350D01*
X1553500Y1366350D02*
X1579500Y1366350D01*
X1653500Y1366350D02*
X1656500Y1366350D01*
X1033500Y1365350D02*
X1036500Y1365350D01*
X1653500Y1365350D02*
X1656500Y1365350D01*
X1033500Y1364350D02*
X1036500Y1364350D01*
X1653500Y1364350D02*
X1656500Y1364350D01*
X1033500Y1363350D02*
X1036500Y1363350D01*
X1653500Y1363350D02*
X1656500Y1363350D01*
X1033500Y1362350D02*
X1036500Y1362350D01*
X1653500Y1362350D02*
X1656500Y1362350D01*
X1033500Y1361350D02*
X1036500Y1361350D01*
X1653500Y1361350D02*
X1656500Y1361350D01*
X1033500Y1360350D02*
X1036500Y1360350D01*
X1653500Y1360350D02*
X1656500Y1360350D01*
X1033500Y1359350D02*
X1036500Y1359350D01*
X1653500Y1359350D02*
X1656500Y1359350D01*
X1033500Y1358350D02*
X1036500Y1358350D01*
X1653500Y1358350D02*
X1656500Y1358350D01*
X1033500Y1357350D02*
X1036500Y1357350D01*
X1653500Y1357350D02*
X1656500Y1357350D01*
X1033500Y1356350D02*
X1036500Y1356350D01*
X1653500Y1356350D02*
X1656500Y1356350D01*
X1033500Y1355350D02*
X1036500Y1355350D01*
X1653500Y1355350D02*
X1656500Y1355350D01*
X1033500Y1354350D02*
X1036500Y1354350D01*
X1653500Y1354350D02*
X1656500Y1354350D01*
X1033500Y1353350D02*
X1036500Y1353350D01*
X1653500Y1353350D02*
X1656500Y1353350D01*
X1033500Y1352350D02*
X1036500Y1352350D01*
X1653500Y1352350D02*
X1656500Y1352350D01*
X1033500Y1351350D02*
X1036500Y1351350D01*
X1653500Y1351350D02*
X1656500Y1351350D01*
X1033500Y1350350D02*
X1036500Y1350350D01*
X1653500Y1350350D02*
X1656500Y1350350D01*
X1033500Y1349350D02*
X1036500Y1349350D01*
X1653500Y1349350D02*
X1656500Y1349350D01*
X1033500Y1348350D02*
X1036500Y1348350D01*
X1653500Y1348350D02*
X1656500Y1348350D01*
X1033500Y1347350D02*
X1036500Y1347350D01*
X1653500Y1347350D02*
X1656500Y1347350D01*
X1033500Y1346350D02*
X1036500Y1346350D01*
X1653500Y1346350D02*
X1656500Y1346350D01*
X1033500Y1345350D02*
X1036500Y1345350D01*
X1653500Y1345350D02*
X1656500Y1345350D01*
X1033500Y1344350D02*
X1036500Y1344350D01*
X1653500Y1344350D02*
X1656500Y1344350D01*
X1033500Y1343350D02*
X1036500Y1343350D01*
X1653500Y1343350D02*
X1656500Y1343350D01*
X1033500Y1342350D02*
X1036500Y1342350D01*
X1653500Y1342350D02*
X1656500Y1342350D01*
X1033500Y1341350D02*
X1036500Y1341350D01*
X1653500Y1341350D02*
X1656500Y1341350D01*
X1033500Y1340350D02*
X1036500Y1340350D01*
X1653500Y1340350D02*
X1656500Y1340350D01*
X1033500Y1339350D02*
X1036500Y1339350D01*
X1653500Y1339350D02*
X1656500Y1339350D01*
X1033500Y1338350D02*
X1036500Y1338350D01*
X1653500Y1338350D02*
X1656500Y1338350D01*
X1033500Y1337350D02*
X1036500Y1337350D01*
X1653500Y1337350D02*
X1656500Y1337350D01*
X1033500Y1336350D02*
X1036500Y1336350D01*
X1653500Y1336350D02*
X1656500Y1336350D01*
X1033500Y1335350D02*
X1036500Y1335350D01*
X1653500Y1335350D02*
X1656500Y1335350D01*
X1033500Y1334350D02*
X1036500Y1334350D01*
X1653500Y1334350D02*
X1656500Y1334350D01*
X1033500Y1333350D02*
X1036500Y1333350D01*
X1653500Y1333350D02*
X1656500Y1333350D01*
X1033500Y1332350D02*
X1036500Y1332350D01*
X1653500Y1332350D02*
X1656500Y1332350D01*
X1033500Y1331350D02*
X1036500Y1331350D01*
X1653500Y1331350D02*
X1656500Y1331350D01*
X1033500Y1330350D02*
X1036500Y1330350D01*
X1653500Y1330350D02*
X1656500Y1330350D01*
X1033500Y1329350D02*
X1036500Y1329350D01*
X1653500Y1329350D02*
X1656500Y1329350D01*
X1033500Y1328350D02*
X1036500Y1328350D01*
X1653500Y1328350D02*
X1656500Y1328350D01*
X1033500Y1327350D02*
X1036500Y1327350D01*
X1653500Y1327350D02*
X1656500Y1327350D01*
X1033500Y1326350D02*
X1036500Y1326350D01*
X1653500Y1326350D02*
X1656500Y1326350D01*
X1033500Y1325350D02*
X1036500Y1325350D01*
X1653500Y1325350D02*
X1656500Y1325350D01*
X1033500Y1324350D02*
X1036500Y1324350D01*
X1653500Y1324350D02*
X1656500Y1324350D01*
X1033500Y1323350D02*
X1036500Y1323350D01*
X1653500Y1323350D02*
X1656500Y1323350D01*
X1033500Y1322350D02*
X1036500Y1322350D01*
X1653500Y1322350D02*
X1656500Y1322350D01*
X1033500Y1321350D02*
X1036500Y1321350D01*
X1653500Y1321350D02*
X1656500Y1321350D01*
X1033500Y1320350D02*
X1036500Y1320350D01*
X1653500Y1320350D02*
X1656500Y1320350D01*
X1033500Y1319350D02*
X1036500Y1319350D01*
X1653500Y1319350D02*
X1655500Y1319350D01*
X1034500Y1318350D02*
X1037500Y1318350D01*
X1652500Y1318350D02*
X1655500Y1318350D01*
X1034500Y1317350D02*
X1038500Y1317350D01*
X1651500Y1317350D02*
X1654500Y1317350D01*
X1035500Y1316350D02*
X1654500Y1316350D01*
X1036500Y1315350D02*
X1653500Y1315350D01*
X1037500Y1314350D02*
X1651500Y1314350D01*
X1039500Y1313350D02*
X1649500Y1313350D01*
X1135500Y1270350D02*
X1136500Y1270350D01*
X1220500Y1270350D02*
X1225500Y1270350D01*
X1306500Y1270350D02*
X1311500Y1270350D01*
X1390500Y1270350D02*
X1393500Y1270350D01*
X1475500Y1270350D02*
X1485500Y1270350D01*
X1564500Y1270350D02*
X1568500Y1270350D01*
X1134500Y1269350D02*
X1137500Y1269350D01*
X1219500Y1269350D02*
X1226500Y1269350D01*
X1305500Y1269350D02*
X1313500Y1269350D01*
X1390500Y1269350D02*
X1393500Y1269350D01*
X1475500Y1269350D02*
X1485500Y1269350D01*
X1562500Y1269350D02*
X1570500Y1269350D01*
X1134500Y1268350D02*
X1139500Y1268350D01*
X1218500Y1268350D02*
X1220500Y1268350D01*
X1225500Y1268350D02*
X1227500Y1268350D01*
X1304500Y1268350D02*
X1306500Y1268350D01*
X1311500Y1268350D02*
X1314500Y1268350D01*
X1390500Y1268350D02*
X1394500Y1268350D01*
X1475500Y1268350D02*
X1485500Y1268350D01*
X1561500Y1268350D02*
X1564500Y1268350D01*
X1568500Y1268350D02*
X1571500Y1268350D01*
X1134500Y1267350D02*
X1136500Y1267350D01*
X1138500Y1267350D02*
X1140500Y1267350D01*
X1217500Y1267350D02*
X1219500Y1267350D01*
X1226500Y1267350D02*
X1228500Y1267350D01*
X1303500Y1267350D02*
X1305500Y1267350D01*
X1312500Y1267350D02*
X1314500Y1267350D01*
X1390500Y1267350D02*
X1391500Y1267350D01*
X1393500Y1267350D02*
X1395500Y1267350D01*
X1484500Y1267350D02*
X1485500Y1267350D01*
X1560500Y1267350D02*
X1562500Y1267350D01*
X1570500Y1267350D02*
X1572500Y1267350D01*
X1134500Y1266350D02*
X1136500Y1266350D01*
X1139500Y1266350D02*
X1141500Y1266350D01*
X1217500Y1266350D02*
X1218500Y1266350D01*
X1227500Y1266350D02*
X1229500Y1266350D01*
X1303500Y1266350D02*
X1304500Y1266350D01*
X1313500Y1266350D02*
X1315500Y1266350D01*
X1390500Y1266350D02*
X1391500Y1266350D01*
X1394500Y1266350D02*
X1395500Y1266350D01*
X1484500Y1266350D02*
X1485500Y1266350D01*
X1560500Y1266350D02*
X1562500Y1266350D01*
X1570500Y1266350D02*
X1572500Y1266350D01*
X1134500Y1265350D02*
X1136500Y1265350D01*
X1140500Y1265350D02*
X1141500Y1265350D01*
X1217500Y1265350D02*
X1218500Y1265350D01*
X1227500Y1265350D02*
X1229500Y1265350D01*
X1303500Y1265350D02*
X1304500Y1265350D01*
X1314500Y1265350D02*
X1314500Y1265350D01*
X1390500Y1265350D02*
X1391500Y1265350D01*
X1394500Y1265350D02*
X1396500Y1265350D01*
X1484500Y1265350D02*
X1486500Y1265350D01*
X1571500Y1265350D02*
X1572500Y1265350D01*
X1134500Y1264350D02*
X1136500Y1264350D01*
X1217500Y1264350D02*
X1218500Y1264350D01*
X1303500Y1264350D02*
X1304500Y1264350D01*
X1390500Y1264350D02*
X1391500Y1264350D01*
X1395500Y1264350D02*
X1397500Y1264350D01*
X1484500Y1264350D02*
X1486500Y1264350D01*
X1571500Y1264350D02*
X1573500Y1264350D01*
X1134500Y1263350D02*
X1136500Y1263350D01*
X1217500Y1263350D02*
X1219500Y1263350D01*
X1303500Y1263350D02*
X1305500Y1263350D01*
X1390500Y1263350D02*
X1391500Y1263350D01*
X1396500Y1263350D02*
X1397500Y1263350D01*
X1478500Y1263350D02*
X1481500Y1263350D01*
X1485500Y1263350D02*
X1486500Y1263350D01*
X1565500Y1263350D02*
X1567500Y1263350D01*
X1571500Y1263350D02*
X1573500Y1263350D01*
X1134500Y1262350D02*
X1136500Y1262350D01*
X1218500Y1262350D02*
X1219500Y1262350D01*
X1304500Y1262350D02*
X1306500Y1262350D01*
X1390500Y1262350D02*
X1391500Y1262350D01*
X1396500Y1262350D02*
X1398500Y1262350D01*
X1476500Y1262350D02*
X1483500Y1262350D01*
X1485500Y1262350D02*
X1486500Y1262350D01*
X1562500Y1262350D02*
X1569500Y1262350D01*
X1572500Y1262350D02*
X1573500Y1262350D01*
X1134500Y1261350D02*
X1136500Y1261350D01*
X1218500Y1261350D02*
X1220500Y1261350D01*
X1306500Y1261350D02*
X1311500Y1261350D01*
X1390500Y1261350D02*
X1391500Y1261350D01*
X1397500Y1261350D02*
X1399500Y1261350D01*
X1475500Y1261350D02*
X1486500Y1261350D01*
X1561500Y1261350D02*
X1570500Y1261350D01*
X1572500Y1261350D02*
X1573500Y1261350D01*
X1134500Y1260350D02*
X1136500Y1260350D01*
X1219500Y1260350D02*
X1221500Y1260350D01*
X1305500Y1260350D02*
X1311500Y1260350D01*
X1390500Y1260350D02*
X1391500Y1260350D01*
X1398500Y1260350D02*
X1399500Y1260350D01*
X1474500Y1260350D02*
X1477500Y1260350D01*
X1484500Y1260350D02*
X1486500Y1260350D01*
X1560500Y1260350D02*
X1563500Y1260350D01*
X1569500Y1260350D02*
X1573500Y1260350D01*
X1134500Y1259350D02*
X1136500Y1259350D01*
X1220500Y1259350D02*
X1222500Y1259350D01*
X1304500Y1259350D02*
X1306500Y1259350D01*
X1390500Y1259350D02*
X1391500Y1259350D01*
X1398500Y1259350D02*
X1400500Y1259350D01*
X1474500Y1259350D02*
X1476500Y1259350D01*
X1485500Y1259350D02*
X1486500Y1259350D01*
X1560500Y1259350D02*
X1562500Y1259350D01*
X1570500Y1259350D02*
X1573500Y1259350D01*
X1134500Y1258350D02*
X1136500Y1258350D01*
X1221500Y1258350D02*
X1223500Y1258350D01*
X1303500Y1258350D02*
X1305500Y1258350D01*
X1390500Y1258350D02*
X1391500Y1258350D01*
X1399500Y1258350D02*
X1400500Y1258350D01*
X1474500Y1258350D02*
X1475500Y1258350D01*
X1560500Y1258350D02*
X1561500Y1258350D01*
X1571500Y1258350D02*
X1573500Y1258350D01*
X1134500Y1257350D02*
X1136500Y1257350D01*
X1222500Y1257350D02*
X1224500Y1257350D01*
X1302500Y1257350D02*
X1304500Y1257350D01*
X1390500Y1257350D02*
X1391500Y1257350D01*
X1400500Y1257350D02*
X1401500Y1257350D01*
X1473500Y1257350D02*
X1475500Y1257350D01*
X1559500Y1257350D02*
X1561500Y1257350D01*
X1571500Y1257350D02*
X1573500Y1257350D01*
X1134500Y1256350D02*
X1136500Y1256350D01*
X1223500Y1256350D02*
X1225500Y1256350D01*
X1302500Y1256350D02*
X1304500Y1256350D01*
X1387500Y1256350D02*
X1401500Y1256350D01*
X1473500Y1256350D02*
X1475500Y1256350D01*
X1559500Y1256350D02*
X1561500Y1256350D01*
X1571500Y1256350D02*
X1573500Y1256350D01*
X1134500Y1255350D02*
X1136500Y1255350D01*
X1224500Y1255350D02*
X1225500Y1255350D01*
X1302500Y1255350D02*
X1304500Y1255350D01*
X1314500Y1255350D02*
X1315500Y1255350D01*
X1387500Y1255350D02*
X1401500Y1255350D01*
X1474500Y1255350D02*
X1475500Y1255350D01*
X1485500Y1255350D02*
X1486500Y1255350D01*
X1560500Y1255350D02*
X1561500Y1255350D01*
X1571500Y1255350D02*
X1573500Y1255350D01*
X1134500Y1254350D02*
X1136500Y1254350D01*
X1225500Y1254350D02*
X1226500Y1254350D01*
X1302500Y1254350D02*
X1304500Y1254350D01*
X1313500Y1254350D02*
X1315500Y1254350D01*
X1390500Y1254350D02*
X1392500Y1254350D01*
X1474500Y1254350D02*
X1476500Y1254350D01*
X1485500Y1254350D02*
X1486500Y1254350D01*
X1560500Y1254350D02*
X1562500Y1254350D01*
X1570500Y1254350D02*
X1572500Y1254350D01*
X1134500Y1253350D02*
X1136500Y1253350D01*
X1225500Y1253350D02*
X1227500Y1253350D01*
X1303500Y1253350D02*
X1305500Y1253350D01*
X1312500Y1253350D02*
X1315500Y1253350D01*
X1390500Y1253350D02*
X1391500Y1253350D01*
X1474500Y1253350D02*
X1476500Y1253350D01*
X1484500Y1253350D02*
X1486500Y1253350D01*
X1560500Y1253350D02*
X1563500Y1253350D01*
X1570500Y1253350D02*
X1572500Y1253350D01*
X1134500Y1252350D02*
X1136500Y1252350D01*
X1217500Y1252350D02*
X1228500Y1252350D01*
X1303500Y1252350D02*
X1307500Y1252350D01*
X1311500Y1252350D02*
X1314500Y1252350D01*
X1390500Y1252350D02*
X1391500Y1252350D01*
X1475500Y1252350D02*
X1478500Y1252350D01*
X1482500Y1252350D02*
X1485500Y1252350D01*
X1561500Y1252350D02*
X1565500Y1252350D01*
X1568500Y1252350D02*
X1571500Y1252350D01*
X1134500Y1251350D02*
X1136500Y1251350D01*
X1216500Y1251350D02*
X1229500Y1251350D01*
X1305500Y1251350D02*
X1313500Y1251350D01*
X1390500Y1251350D02*
X1391500Y1251350D01*
X1476500Y1251350D02*
X1484500Y1251350D01*
X1562500Y1251350D02*
X1570500Y1251350D01*
X1135500Y1250350D02*
X1135500Y1250350D01*
X1217500Y1250350D02*
X1228500Y1250350D01*
X1307500Y1250350D02*
X1311500Y1250350D01*
X1390500Y1250350D02*
X1391500Y1250350D01*
X1478500Y1250350D02*
X1482500Y1250350D01*
X1564500Y1250350D02*
X1568500Y1250350D01*
X1139500Y1208350D02*
X1140500Y1208350D01*
X1307500Y1208350D02*
X1312500Y1208350D01*
X1565500Y1208350D02*
X1570500Y1208350D01*
X1139500Y1207350D02*
X1140500Y1207350D01*
X1216500Y1207350D02*
X1232500Y1207350D01*
X1305500Y1207350D02*
X1315500Y1207350D01*
X1388500Y1207350D02*
X1403500Y1207350D01*
X1474500Y1207350D02*
X1489500Y1207350D01*
X1562500Y1207350D02*
X1572500Y1207350D01*
X1139500Y1206350D02*
X1140500Y1206350D01*
X1216500Y1206350D02*
X1232500Y1206350D01*
X1304500Y1206350D02*
X1307500Y1206350D01*
X1313500Y1206350D02*
X1316500Y1206350D01*
X1388500Y1206350D02*
X1403500Y1206350D01*
X1474500Y1206350D02*
X1489500Y1206350D01*
X1561500Y1206350D02*
X1564500Y1206350D01*
X1570500Y1206350D02*
X1573500Y1206350D01*
X1139500Y1205350D02*
X1140500Y1205350D01*
X1216500Y1205350D02*
X1217500Y1205350D01*
X1224500Y1205350D02*
X1225500Y1205350D01*
X1303500Y1205350D02*
X1305500Y1205350D01*
X1315500Y1205350D02*
X1317500Y1205350D01*
X1389500Y1205350D02*
X1391500Y1205350D01*
X1474500Y1205350D02*
X1474500Y1205350D01*
X1488500Y1205350D02*
X1489500Y1205350D01*
X1560500Y1205350D02*
X1562500Y1205350D01*
X1572500Y1205350D02*
X1574500Y1205350D01*
X1139500Y1204350D02*
X1140500Y1204350D01*
X1216500Y1204350D02*
X1217500Y1204350D01*
X1224500Y1204350D02*
X1225500Y1204350D01*
X1302500Y1204350D02*
X1303500Y1204350D01*
X1316500Y1204350D02*
X1317500Y1204350D01*
X1390500Y1204350D02*
X1393500Y1204350D01*
X1474500Y1204350D02*
X1474500Y1204350D01*
X1488500Y1204350D02*
X1489500Y1204350D01*
X1560500Y1204350D02*
X1561500Y1204350D01*
X1573500Y1204350D02*
X1575500Y1204350D01*
X1135500Y1203350D02*
X1145500Y1203350D01*
X1216500Y1203350D02*
X1217500Y1203350D01*
X1224500Y1203350D02*
X1225500Y1203350D01*
X1302500Y1203350D02*
X1303500Y1203350D01*
X1316500Y1203350D02*
X1318500Y1203350D01*
X1392500Y1203350D02*
X1394500Y1203350D01*
X1474500Y1203350D02*
X1474500Y1203350D01*
X1488500Y1203350D02*
X1489500Y1203350D01*
X1559500Y1203350D02*
X1561500Y1203350D01*
X1574500Y1203350D02*
X1575500Y1203350D01*
X1134500Y1202350D02*
X1145500Y1202350D01*
X1216500Y1202350D02*
X1217500Y1202350D01*
X1224500Y1202350D02*
X1225500Y1202350D01*
X1302500Y1202350D02*
X1303500Y1202350D01*
X1317500Y1202350D02*
X1318500Y1202350D01*
X1393500Y1202350D02*
X1395500Y1202350D01*
X1474500Y1202350D02*
X1474500Y1202350D01*
X1488500Y1202350D02*
X1489500Y1202350D01*
X1559500Y1202350D02*
X1560500Y1202350D01*
X1574500Y1202350D02*
X1575500Y1202350D01*
X1139500Y1201350D02*
X1140500Y1201350D01*
X1216500Y1201350D02*
X1217500Y1201350D01*
X1224500Y1201350D02*
X1226500Y1201350D01*
X1302500Y1201350D02*
X1302500Y1201350D01*
X1317500Y1201350D02*
X1318500Y1201350D01*
X1394500Y1201350D02*
X1397500Y1201350D01*
X1474500Y1201350D02*
X1475500Y1201350D01*
X1488500Y1201350D02*
X1489500Y1201350D01*
X1559500Y1201350D02*
X1560500Y1201350D01*
X1575500Y1201350D02*
X1575500Y1201350D01*
X1139500Y1200350D02*
X1140500Y1200350D01*
X1216500Y1200350D02*
X1217500Y1200350D01*
X1224500Y1200350D02*
X1228500Y1200350D01*
X1302500Y1200350D02*
X1303500Y1200350D01*
X1310500Y1200350D02*
X1311500Y1200350D01*
X1317500Y1200350D02*
X1318500Y1200350D01*
X1396500Y1200350D02*
X1398500Y1200350D01*
X1474500Y1200350D02*
X1475500Y1200350D01*
X1488500Y1200350D02*
X1489500Y1200350D01*
X1559500Y1200350D02*
X1560500Y1200350D01*
X1568500Y1200350D02*
X1568500Y1200350D01*
X1574500Y1200350D02*
X1575500Y1200350D01*
X1139500Y1199350D02*
X1140500Y1199350D01*
X1216500Y1199350D02*
X1218500Y1199350D01*
X1223500Y1199350D02*
X1225500Y1199350D01*
X1227500Y1199350D02*
X1230500Y1199350D01*
X1302500Y1199350D02*
X1303500Y1199350D01*
X1310500Y1199350D02*
X1311500Y1199350D01*
X1317500Y1199350D02*
X1318500Y1199350D01*
X1397500Y1199350D02*
X1400500Y1199350D01*
X1474500Y1199350D02*
X1475500Y1199350D01*
X1488500Y1199350D02*
X1489500Y1199350D01*
X1559500Y1199350D02*
X1560500Y1199350D01*
X1568500Y1199350D02*
X1569500Y1199350D01*
X1574500Y1199350D02*
X1575500Y1199350D01*
X1139500Y1198350D02*
X1140500Y1198350D01*
X1217500Y1198350D02*
X1224500Y1198350D01*
X1228500Y1198350D02*
X1232500Y1198350D01*
X1302500Y1198350D02*
X1303500Y1198350D01*
X1310500Y1198350D02*
X1311500Y1198350D01*
X1316500Y1198350D02*
X1317500Y1198350D01*
X1399500Y1198350D02*
X1401500Y1198350D01*
X1475500Y1198350D02*
X1476500Y1198350D01*
X1487500Y1198350D02*
X1488500Y1198350D01*
X1560500Y1198350D02*
X1561500Y1198350D01*
X1568500Y1198350D02*
X1569500Y1198350D01*
X1574500Y1198350D02*
X1575500Y1198350D01*
X1139500Y1197350D02*
X1140500Y1197350D01*
X1218500Y1197350D02*
X1223500Y1197350D01*
X1230500Y1197350D02*
X1232500Y1197350D01*
X1302500Y1197350D02*
X1304500Y1197350D01*
X1310500Y1197350D02*
X1311500Y1197350D01*
X1315500Y1197350D02*
X1317500Y1197350D01*
X1400500Y1197350D02*
X1403500Y1197350D01*
X1475500Y1197350D02*
X1478500Y1197350D01*
X1485500Y1197350D02*
X1488500Y1197350D01*
X1560500Y1197350D02*
X1562500Y1197350D01*
X1568500Y1197350D02*
X1569500Y1197350D01*
X1573500Y1197350D02*
X1575500Y1197350D01*
X1303500Y1196350D02*
X1306500Y1196350D01*
X1310500Y1196350D02*
X1311500Y1196350D01*
X1314500Y1196350D02*
X1316500Y1196350D01*
X1388500Y1196350D02*
X1403500Y1196350D01*
X1476500Y1196350D02*
X1487500Y1196350D01*
X1561500Y1196350D02*
X1563500Y1196350D01*
X1568500Y1196350D02*
X1569500Y1196350D01*
X1571500Y1196350D02*
X1574500Y1196350D01*
X1304500Y1195350D02*
X1306500Y1195350D01*
X1310500Y1195350D02*
X1315500Y1195350D01*
X1388500Y1195350D02*
X1403500Y1195350D01*
X1478500Y1195350D02*
X1485500Y1195350D01*
X1562500Y1195350D02*
X1564500Y1195350D01*
X1568500Y1195350D02*
X1573500Y1195350D01*
X1216500Y1194350D02*
X1217500Y1194350D01*
X1306500Y1194350D02*
X1306500Y1194350D01*
X1310500Y1194350D02*
X1313500Y1194350D01*
X1568500Y1194350D02*
X1571500Y1194350D01*
X1136500Y1193350D02*
X1139500Y1193350D01*
X1142500Y1193350D02*
X1143500Y1193350D01*
X1216500Y1193350D02*
X1217500Y1193350D01*
X1489500Y1193350D02*
X1489500Y1193350D01*
X1130500Y1192350D02*
X1139500Y1192350D01*
X1142500Y1192350D02*
X1145500Y1192350D01*
X1216500Y1192350D02*
X1217500Y1192350D01*
X1487500Y1192350D02*
X1489500Y1192350D01*
X1130500Y1191350D02*
X1134500Y1191350D01*
X1137500Y1191350D02*
X1138500Y1191350D01*
X1144500Y1191350D02*
X1145500Y1191350D01*
X1216500Y1191350D02*
X1217500Y1191350D01*
X1392500Y1191350D02*
X1399500Y1191350D01*
X1484500Y1191350D02*
X1489500Y1191350D01*
X1130500Y1190350D02*
X1131500Y1190350D01*
X1136500Y1190350D02*
X1137500Y1190350D01*
X1145500Y1190350D02*
X1146500Y1190350D01*
X1216500Y1190350D02*
X1217500Y1190350D01*
X1302500Y1190350D02*
X1318500Y1190350D01*
X1390500Y1190350D02*
X1401500Y1190350D01*
X1481500Y1190350D02*
X1486500Y1190350D01*
X1559500Y1190350D02*
X1575500Y1190350D01*
X1130500Y1189350D02*
X1131500Y1189350D01*
X1136500Y1189350D02*
X1137500Y1189350D01*
X1145500Y1189350D02*
X1146500Y1189350D01*
X1216500Y1189350D02*
X1232500Y1189350D01*
X1302500Y1189350D02*
X1317500Y1189350D01*
X1389500Y1189350D02*
X1392500Y1189350D01*
X1399500Y1189350D02*
X1402500Y1189350D01*
X1478500Y1189350D02*
X1485500Y1189350D01*
X1560500Y1189350D02*
X1575500Y1189350D01*
X1130500Y1188350D02*
X1131500Y1188350D01*
X1136500Y1188350D02*
X1137500Y1188350D01*
X1145500Y1188350D02*
X1146500Y1188350D01*
X1216500Y1188350D02*
X1232500Y1188350D01*
X1303500Y1188350D02*
X1305500Y1188350D01*
X1388500Y1188350D02*
X1390500Y1188350D01*
X1401500Y1188350D02*
X1403500Y1188350D01*
X1476500Y1188350D02*
X1480500Y1188350D01*
X1484500Y1188350D02*
X1485500Y1188350D01*
X1561500Y1188350D02*
X1563500Y1188350D01*
X1130500Y1187350D02*
X1131500Y1187350D01*
X1136500Y1187350D02*
X1137500Y1187350D01*
X1145500Y1187350D02*
X1146500Y1187350D01*
X1216500Y1187350D02*
X1217500Y1187350D01*
X1305500Y1187350D02*
X1307500Y1187350D01*
X1388500Y1187350D02*
X1389500Y1187350D01*
X1402500Y1187350D02*
X1403500Y1187350D01*
X1474500Y1187350D02*
X1477500Y1187350D01*
X1484500Y1187350D02*
X1485500Y1187350D01*
X1562500Y1187350D02*
X1565500Y1187350D01*
X1130500Y1186350D02*
X1131500Y1186350D01*
X1136500Y1186350D02*
X1137500Y1186350D01*
X1145500Y1186350D02*
X1146500Y1186350D01*
X1216500Y1186350D02*
X1217500Y1186350D01*
X1306500Y1186350D02*
X1308500Y1186350D01*
X1388500Y1186350D02*
X1389500Y1186350D01*
X1402500Y1186350D02*
X1404500Y1186350D01*
X1473500Y1186350D02*
X1476500Y1186350D01*
X1484500Y1186350D02*
X1485500Y1186350D01*
X1564500Y1186350D02*
X1566500Y1186350D01*
X1130500Y1185350D02*
X1131500Y1185350D01*
X1136500Y1185350D02*
X1138500Y1185350D01*
X1144500Y1185350D02*
X1145500Y1185350D01*
X1216500Y1185350D02*
X1217500Y1185350D01*
X1307500Y1185350D02*
X1310500Y1185350D01*
X1387500Y1185350D02*
X1388500Y1185350D01*
X1403500Y1185350D02*
X1404500Y1185350D01*
X1474500Y1185350D02*
X1478500Y1185350D01*
X1484500Y1185350D02*
X1485500Y1185350D01*
X1565500Y1185350D02*
X1567500Y1185350D01*
X1130500Y1184350D02*
X1131500Y1184350D01*
X1137500Y1184350D02*
X1145500Y1184350D01*
X1216500Y1184350D02*
X1217500Y1184350D01*
X1309500Y1184350D02*
X1311500Y1184350D01*
X1387500Y1184350D02*
X1388500Y1184350D01*
X1403500Y1184350D02*
X1404500Y1184350D01*
X1476500Y1184350D02*
X1481500Y1184350D01*
X1484500Y1184350D02*
X1485500Y1184350D01*
X1566500Y1184350D02*
X1569500Y1184350D01*
X1130500Y1183350D02*
X1131500Y1183350D01*
X1138500Y1183350D02*
X1144500Y1183350D01*
X1216500Y1183350D02*
X1217500Y1183350D01*
X1310500Y1183350D02*
X1313500Y1183350D01*
X1387500Y1183350D02*
X1389500Y1183350D01*
X1403500Y1183350D02*
X1404500Y1183350D01*
X1479500Y1183350D02*
X1485500Y1183350D01*
X1568500Y1183350D02*
X1570500Y1183350D01*
X1140500Y1182350D02*
X1141500Y1182350D01*
X1216500Y1182350D02*
X1217500Y1182350D01*
X1312500Y1182350D02*
X1314500Y1182350D01*
X1388500Y1182350D02*
X1389500Y1182350D01*
X1402500Y1182350D02*
X1403500Y1182350D01*
X1482500Y1182350D02*
X1487500Y1182350D01*
X1569500Y1182350D02*
X1572500Y1182350D01*
X1313500Y1181350D02*
X1316500Y1181350D01*
X1388500Y1181350D02*
X1389500Y1181350D01*
X1402500Y1181350D02*
X1403500Y1181350D01*
X1485500Y1181350D02*
X1489500Y1181350D01*
X1571500Y1181350D02*
X1573500Y1181350D01*
X1130500Y1180350D02*
X1131500Y1180350D01*
X1220500Y1180350D02*
X1220500Y1180350D01*
X1228500Y1180350D02*
X1229500Y1180350D01*
X1314500Y1180350D02*
X1317500Y1180350D01*
X1389500Y1180350D02*
X1391500Y1180350D01*
X1401500Y1180350D02*
X1403500Y1180350D01*
X1474500Y1180350D02*
X1474500Y1180350D01*
X1487500Y1180350D02*
X1489500Y1180350D01*
X1572500Y1180350D02*
X1575500Y1180350D01*
X1130500Y1179350D02*
X1134500Y1179350D01*
X1218500Y1179350D02*
X1222500Y1179350D01*
X1228500Y1179350D02*
X1230500Y1179350D01*
X1302500Y1179350D02*
X1318500Y1179350D01*
X1389500Y1179350D02*
X1392500Y1179350D01*
X1399500Y1179350D02*
X1402500Y1179350D01*
X1474500Y1179350D02*
X1474500Y1179350D01*
X1559500Y1179350D02*
X1575500Y1179350D01*
X1132500Y1178350D02*
X1137500Y1178350D01*
X1217500Y1178350D02*
X1223500Y1178350D01*
X1229500Y1178350D02*
X1231500Y1178350D01*
X1302500Y1178350D02*
X1318500Y1178350D01*
X1391500Y1178350D02*
X1392500Y1178350D01*
X1399500Y1178350D02*
X1400500Y1178350D01*
X1474500Y1178350D02*
X1474500Y1178350D01*
X1559500Y1178350D02*
X1575500Y1178350D01*
X1135500Y1177350D02*
X1139500Y1177350D01*
X1216500Y1177350D02*
X1218500Y1177350D01*
X1222500Y1177350D02*
X1223500Y1177350D01*
X1230500Y1177350D02*
X1232500Y1177350D01*
X1474500Y1177350D02*
X1474500Y1177350D01*
X1137500Y1176350D02*
X1142500Y1176350D01*
X1216500Y1176350D02*
X1217500Y1176350D01*
X1223500Y1176350D02*
X1224500Y1176350D01*
X1231500Y1176350D02*
X1232500Y1176350D01*
X1474500Y1176350D02*
X1474500Y1176350D01*
X1140500Y1175350D02*
X1145500Y1175350D01*
X1216500Y1175350D02*
X1217500Y1175350D01*
X1223500Y1175350D02*
X1224500Y1175350D01*
X1231500Y1175350D02*
X1232500Y1175350D01*
X1474500Y1175350D02*
X1489500Y1175350D01*
X1143500Y1174350D02*
X1146500Y1174350D01*
X1216500Y1174350D02*
X1217500Y1174350D01*
X1223500Y1174350D02*
X1224500Y1174350D01*
X1231500Y1174350D02*
X1232500Y1174350D01*
X1302500Y1174350D02*
X1317500Y1174350D01*
X1474500Y1174350D02*
X1489500Y1174350D01*
X1560500Y1174350D02*
X1575500Y1174350D01*
X1143500Y1173350D02*
X1146500Y1173350D01*
X1216500Y1173350D02*
X1217500Y1173350D01*
X1223500Y1173350D02*
X1225500Y1173350D01*
X1231500Y1173350D02*
X1232500Y1173350D01*
X1302500Y1173350D02*
X1318500Y1173350D01*
X1474500Y1173350D02*
X1489500Y1173350D01*
X1559500Y1173350D02*
X1575500Y1173350D01*
X1140500Y1172350D02*
X1144500Y1172350D01*
X1216500Y1172350D02*
X1217500Y1172350D01*
X1224500Y1172350D02*
X1225500Y1172350D01*
X1231500Y1172350D02*
X1232500Y1172350D01*
X1302500Y1172350D02*
X1303500Y1172350D01*
X1316500Y1172350D02*
X1318500Y1172350D01*
X1474500Y1172350D02*
X1474500Y1172350D01*
X1559500Y1172350D02*
X1561500Y1172350D01*
X1574500Y1172350D02*
X1575500Y1172350D01*
X1137500Y1171350D02*
X1142500Y1171350D01*
X1216500Y1171350D02*
X1218500Y1171350D01*
X1224500Y1171350D02*
X1225500Y1171350D01*
X1230500Y1171350D02*
X1231500Y1171350D01*
X1302500Y1171350D02*
X1303500Y1171350D01*
X1317500Y1171350D02*
X1318500Y1171350D01*
X1474500Y1171350D02*
X1474500Y1171350D01*
X1559500Y1171350D02*
X1560500Y1171350D01*
X1574500Y1171350D02*
X1575500Y1171350D01*
X1134500Y1170350D02*
X1139500Y1170350D01*
X1217500Y1170350D02*
X1219500Y1170350D01*
X1224500Y1170350D02*
X1231500Y1170350D01*
X1302500Y1170350D02*
X1303500Y1170350D01*
X1317500Y1170350D02*
X1318500Y1170350D01*
X1474500Y1170350D02*
X1474500Y1170350D01*
X1559500Y1170350D02*
X1560500Y1170350D01*
X1574500Y1170350D02*
X1575500Y1170350D01*
X1131500Y1169350D02*
X1136500Y1169350D01*
X1218500Y1169350D02*
X1219500Y1169350D01*
X1225500Y1169350D02*
X1230500Y1169350D01*
X1302500Y1169350D02*
X1303500Y1169350D01*
X1317500Y1169350D02*
X1318500Y1169350D01*
X1474500Y1169350D02*
X1474500Y1169350D01*
X1559500Y1169350D02*
X1560500Y1169350D01*
X1574500Y1169350D02*
X1575500Y1169350D01*
X1130500Y1168350D02*
X1134500Y1168350D01*
X1302500Y1168350D02*
X1303500Y1168350D01*
X1317500Y1168350D02*
X1318500Y1168350D01*
X1474500Y1168350D02*
X1474500Y1168350D01*
X1487500Y1168350D02*
X1489500Y1168350D01*
X1559500Y1168350D02*
X1560500Y1168350D01*
X1574500Y1168350D02*
X1575500Y1168350D01*
X1130500Y1167350D02*
X1131500Y1167350D01*
X1302500Y1167350D02*
X1303500Y1167350D01*
X1316500Y1167350D02*
X1317500Y1167350D01*
X1485500Y1167350D02*
X1489500Y1167350D01*
X1560500Y1167350D02*
X1561500Y1167350D01*
X1574500Y1167350D02*
X1575500Y1167350D01*
X1302500Y1166350D02*
X1303500Y1166350D01*
X1316500Y1166350D02*
X1317500Y1166350D01*
X1482500Y1166350D02*
X1487500Y1166350D01*
X1560500Y1166350D02*
X1561500Y1166350D01*
X1574500Y1166350D02*
X1575500Y1166350D01*
X1303500Y1165350D02*
X1304500Y1165350D01*
X1316500Y1165350D02*
X1317500Y1165350D01*
X1479500Y1165350D02*
X1485500Y1165350D01*
X1560500Y1165350D02*
X1561500Y1165350D01*
X1573500Y1165350D02*
X1574500Y1165350D01*
X1303500Y1164350D02*
X1305500Y1164350D01*
X1314500Y1164350D02*
X1316500Y1164350D01*
X1477500Y1164350D02*
X1481500Y1164350D01*
X1484500Y1164350D02*
X1485500Y1164350D01*
X1561500Y1164350D02*
X1563500Y1164350D01*
X1572500Y1164350D02*
X1574500Y1164350D01*
X1304500Y1163350D02*
X1308500Y1163350D01*
X1312500Y1163350D02*
X1316500Y1163350D01*
X1474500Y1163350D02*
X1478500Y1163350D01*
X1484500Y1163350D02*
X1485500Y1163350D01*
X1561500Y1163350D02*
X1565500Y1163350D01*
X1569500Y1163350D02*
X1573500Y1163350D01*
X1305500Y1162350D02*
X1314500Y1162350D01*
X1473500Y1162350D02*
X1476500Y1162350D01*
X1484500Y1162350D02*
X1485500Y1162350D01*
X1563500Y1162350D02*
X1572500Y1162350D01*
X1308500Y1161350D02*
X1312500Y1161350D01*
X1473500Y1161350D02*
X1477500Y1161350D01*
X1484500Y1161350D02*
X1485500Y1161350D01*
X1565500Y1161350D02*
X1569500Y1161350D01*
X1476500Y1160350D02*
X1480500Y1160350D01*
X1484500Y1160350D02*
X1485500Y1160350D01*
X1478500Y1159350D02*
X1485500Y1159350D01*
X1481500Y1158350D02*
X1486500Y1158350D01*
X1484500Y1157350D02*
X1489500Y1157350D01*
X1486500Y1156350D02*
X1489500Y1156350D01*
X1489500Y1155350D02*
X1489500Y1155350D01*
D02*
G04 End of Silk0*
M02*