G04 MADE WITH FRITZING*
G04 WWW.FRITZING.ORG*
G04 DOUBLE SIDED*
G04 HOLES PLATED*
G04 CONTOUR ON CENTER OF CONTOUR VECTOR*
%FSLAX26Y26*%
%MOIN*%
%ADD10C,0.072992*%
%ADD11C,0.085000*%
%ADD12C,0.088000*%
%ADD13C,0.080868*%
%ADD14R,0.072992X0.072992*%
%ADD15R,0.001000X0.001000*%
G04 MASK1*
%FSLAX26Y26*%
%MOIN*%
D10*
X198703Y1364985D03*
X198703Y1266552D03*
D11*
X898703Y1366551D03*
X798703Y1366551D03*
X698703Y1366551D03*
D12*
X2098700Y1466551D03*
X2098700Y1566551D03*
X2098700Y1366551D03*
X1398700Y466550D03*
X1398700Y566550D03*
X1398700Y666550D03*
X1398700Y766550D03*
X1798700Y1266551D03*
X1798700Y1366551D03*
X2098700Y1266551D03*
D11*
X598703Y1166551D03*
X598703Y1566551D03*
X2098700Y766551D03*
X2098700Y366550D03*
X198703Y366550D03*
X198703Y766550D03*
X398703Y1166551D03*
X398703Y1566551D03*
D13*
X1798700Y1030327D03*
X1698720Y1030327D03*
X1598730Y1030327D03*
X1498740Y1030327D03*
X1398760Y1030327D03*
X1298770Y1030327D03*
X1198790Y1030327D03*
X1098800Y1030327D03*
X998820Y1030327D03*
X898830Y1030327D03*
X798840Y1030327D03*
X698860Y1030327D03*
X598870Y1030327D03*
X498890Y1030327D03*
X398900Y1030327D03*
X298910Y1030327D03*
X398900Y930340D03*
X298910Y930340D03*
X1798700Y266550D03*
X1698720Y266550D03*
X1598730Y266550D03*
X1498740Y266550D03*
X1398760Y266550D03*
X1298770Y266550D03*
X1198790Y266550D03*
X1098800Y266550D03*
X998820Y266550D03*
X898830Y266550D03*
X798840Y266550D03*
X698860Y266550D03*
X598870Y266550D03*
X498890Y266550D03*
X398900Y266550D03*
X298910Y266550D03*
X398900Y366530D03*
X298910Y366530D03*
D14*
X198703Y1364985D03*
D15*
X1658500Y1070350D02*
X1738500Y1070350D01*
X1658500Y1069350D02*
X1738500Y1069350D01*
X1658500Y1068350D02*
X1738500Y1068350D01*
X1658500Y1067350D02*
X1738500Y1067350D01*
X1658500Y1066350D02*
X1738500Y1066350D01*
X1658500Y1065350D02*
X1738500Y1065350D01*
X1658500Y1064350D02*
X1738500Y1064350D01*
X1658500Y1063350D02*
X1738500Y1063350D01*
X1658500Y1062350D02*
X1738500Y1062350D01*
X1658500Y1061350D02*
X1738500Y1061350D01*
X1658500Y1060350D02*
X1738500Y1060350D01*
X1658500Y1059350D02*
X1738500Y1059350D01*
X1658500Y1058350D02*
X1738500Y1058350D01*
X1658500Y1057350D02*
X1738500Y1057350D01*
X1658500Y1056350D02*
X1738500Y1056350D01*
X1658500Y1055350D02*
X1738500Y1055350D01*
X1658500Y1054350D02*
X1738500Y1054350D01*
X1658500Y1053350D02*
X1738500Y1053350D01*
X1658500Y1052350D02*
X1738500Y1052350D01*
X1658500Y1051350D02*
X1738500Y1051350D01*
X1658500Y1050350D02*
X1738500Y1050350D01*
X1658500Y1049350D02*
X1738500Y1049350D01*
X1658500Y1048350D02*
X1738500Y1048350D01*
X1658500Y1047350D02*
X1738500Y1047350D01*
X1658500Y1046350D02*
X1738500Y1046350D01*
X1658500Y1045350D02*
X1738500Y1045350D01*
X1658500Y1044350D02*
X1692500Y1044350D01*
X1704500Y1044350D02*
X1738500Y1044350D01*
X1658500Y1043350D02*
X1690500Y1043350D01*
X1706500Y1043350D02*
X1738500Y1043350D01*
X1658500Y1042350D02*
X1688500Y1042350D01*
X1707500Y1042350D02*
X1738500Y1042350D01*
X1658500Y1041350D02*
X1687500Y1041350D01*
X1708500Y1041350D02*
X1738500Y1041350D01*
X1658500Y1040350D02*
X1686500Y1040350D01*
X1709500Y1040350D02*
X1738500Y1040350D01*
X1658500Y1039350D02*
X1685500Y1039350D01*
X1710500Y1039350D02*
X1738500Y1039350D01*
X1658500Y1038350D02*
X1685500Y1038350D01*
X1711500Y1038350D02*
X1738500Y1038350D01*
X1658500Y1037350D02*
X1684500Y1037350D01*
X1711500Y1037350D02*
X1738500Y1037350D01*
X1658500Y1036350D02*
X1684500Y1036350D01*
X1712500Y1036350D02*
X1738500Y1036350D01*
X1658500Y1035350D02*
X1683500Y1035350D01*
X1712500Y1035350D02*
X1738500Y1035350D01*
X1658500Y1034350D02*
X1683500Y1034350D01*
X1712500Y1034350D02*
X1738500Y1034350D01*
X1658500Y1033350D02*
X1683500Y1033350D01*
X1713500Y1033350D02*
X1738500Y1033350D01*
X1658500Y1032350D02*
X1683500Y1032350D01*
X1713500Y1032350D02*
X1738500Y1032350D01*
X1658500Y1031350D02*
X1683500Y1031350D01*
X1713500Y1031350D02*
X1738500Y1031350D01*
X1658500Y1030350D02*
X1683500Y1030350D01*
X1713500Y1030350D02*
X1738500Y1030350D01*
X1658500Y1029350D02*
X1683500Y1029350D01*
X1713500Y1029350D02*
X1738500Y1029350D01*
X1658500Y1028350D02*
X1683500Y1028350D01*
X1713500Y1028350D02*
X1738500Y1028350D01*
X1658500Y1027350D02*
X1683500Y1027350D01*
X1713500Y1027350D02*
X1738500Y1027350D01*
X1658500Y1026350D02*
X1683500Y1026350D01*
X1712500Y1026350D02*
X1738500Y1026350D01*
X1658500Y1025350D02*
X1683500Y1025350D01*
X1712500Y1025350D02*
X1738500Y1025350D01*
X1658500Y1024350D02*
X1684500Y1024350D01*
X1711500Y1024350D02*
X1738500Y1024350D01*
X1658500Y1023350D02*
X1684500Y1023350D01*
X1711500Y1023350D02*
X1738500Y1023350D01*
X1658500Y1022350D02*
X1685500Y1022350D01*
X1710500Y1022350D02*
X1738500Y1022350D01*
X1658500Y1021350D02*
X1686500Y1021350D01*
X1709500Y1021350D02*
X1738500Y1021350D01*
X1658500Y1020350D02*
X1687500Y1020350D01*
X1709500Y1020350D02*
X1738500Y1020350D01*
X1658500Y1019350D02*
X1688500Y1019350D01*
X1707500Y1019350D02*
X1738500Y1019350D01*
X1658500Y1018350D02*
X1689500Y1018350D01*
X1706500Y1018350D02*
X1738500Y1018350D01*
X1658500Y1017350D02*
X1691500Y1017350D01*
X1704500Y1017350D02*
X1738500Y1017350D01*
X1658500Y1016350D02*
X1694500Y1016350D01*
X1702500Y1016350D02*
X1738500Y1016350D01*
X1658500Y1015350D02*
X1738500Y1015350D01*
X1658500Y1014350D02*
X1738500Y1014350D01*
X1658500Y1013350D02*
X1738500Y1013350D01*
X1658500Y1012350D02*
X1738500Y1012350D01*
X1658500Y1011350D02*
X1738500Y1011350D01*
X1658500Y1010350D02*
X1738500Y1010350D01*
X1658500Y1009350D02*
X1738500Y1009350D01*
X1658500Y1008350D02*
X1738500Y1008350D01*
X1658500Y1007350D02*
X1738500Y1007350D01*
X1658500Y1006350D02*
X1738500Y1006350D01*
X1658500Y1005350D02*
X1738500Y1005350D01*
X1658500Y1004350D02*
X1738500Y1004350D01*
X1658500Y1003350D02*
X1738500Y1003350D01*
X1658500Y1002350D02*
X1738500Y1002350D01*
X1658500Y1001350D02*
X1738500Y1001350D01*
X1658500Y1000350D02*
X1738500Y1000350D01*
X1658500Y999350D02*
X1738500Y999350D01*
X1658500Y998350D02*
X1738500Y998350D01*
X1658500Y997350D02*
X1738500Y997350D01*
X1658500Y996350D02*
X1738500Y996350D01*
X1658500Y995350D02*
X1738500Y995350D01*
X1658500Y994350D02*
X1738500Y994350D01*
X1658500Y993350D02*
X1738500Y993350D01*
X1658500Y992350D02*
X1738500Y992350D01*
X1658500Y991350D02*
X1738500Y991350D01*
X1658500Y990350D02*
X1737500Y990350D01*
X1658500Y307350D02*
X1738500Y307350D01*
X1658500Y306350D02*
X1738500Y306350D01*
X1658500Y305350D02*
X1738500Y305350D01*
X1658500Y304350D02*
X1738500Y304350D01*
X1658500Y303350D02*
X1738500Y303350D01*
X1658500Y302350D02*
X1738500Y302350D01*
X1658500Y301350D02*
X1738500Y301350D01*
X1658500Y300350D02*
X1738500Y300350D01*
X1658500Y299350D02*
X1738500Y299350D01*
X1658500Y298350D02*
X1738500Y298350D01*
X1658500Y297350D02*
X1738500Y297350D01*
X1658500Y296350D02*
X1738500Y296350D01*
X1658500Y295350D02*
X1738500Y295350D01*
X1658500Y294350D02*
X1738500Y294350D01*
X1658500Y293350D02*
X1738500Y293350D01*
X1658500Y292350D02*
X1738500Y292350D01*
X1658500Y291350D02*
X1738500Y291350D01*
X1658500Y290350D02*
X1738500Y290350D01*
X1658500Y289350D02*
X1738500Y289350D01*
X1658500Y288350D02*
X1738500Y288350D01*
X1658500Y287350D02*
X1738500Y287350D01*
X1658500Y286350D02*
X1738500Y286350D01*
X1658500Y285350D02*
X1738500Y285350D01*
X1658500Y284350D02*
X1738500Y284350D01*
X1658500Y283350D02*
X1738500Y283350D01*
X1658500Y282350D02*
X1738500Y282350D01*
X1658500Y281350D02*
X1693500Y281350D01*
X1702500Y281350D02*
X1738500Y281350D01*
X1658500Y280350D02*
X1691500Y280350D01*
X1705500Y280350D02*
X1738500Y280350D01*
X1658500Y279350D02*
X1689500Y279350D01*
X1707500Y279350D02*
X1738500Y279350D01*
X1658500Y278350D02*
X1688500Y278350D01*
X1708500Y278350D02*
X1738500Y278350D01*
X1658500Y277350D02*
X1687500Y277350D01*
X1709500Y277350D02*
X1738500Y277350D01*
X1658500Y276350D02*
X1686500Y276350D01*
X1710500Y276350D02*
X1738500Y276350D01*
X1658500Y275350D02*
X1685500Y275350D01*
X1710500Y275350D02*
X1738500Y275350D01*
X1658500Y274350D02*
X1684500Y274350D01*
X1711500Y274350D02*
X1738500Y274350D01*
X1658500Y273350D02*
X1684500Y273350D01*
X1712500Y273350D02*
X1738500Y273350D01*
X1658500Y272350D02*
X1683500Y272350D01*
X1712500Y272350D02*
X1738500Y272350D01*
X1658500Y271350D02*
X1683500Y271350D01*
X1712500Y271350D02*
X1738500Y271350D01*
X1658500Y270350D02*
X1683500Y270350D01*
X1713500Y270350D02*
X1738500Y270350D01*
X1658500Y269350D02*
X1683500Y269350D01*
X1713500Y269350D02*
X1738500Y269350D01*
X1658500Y268350D02*
X1683500Y268350D01*
X1713500Y268350D02*
X1738500Y268350D01*
X1658500Y267350D02*
X1683500Y267350D01*
X1713500Y267350D02*
X1738500Y267350D01*
X1658500Y266350D02*
X1683500Y266350D01*
X1713500Y266350D02*
X1738500Y266350D01*
X1658500Y265350D02*
X1683500Y265350D01*
X1713500Y265350D02*
X1738500Y265350D01*
X1658500Y264350D02*
X1683500Y264350D01*
X1713500Y264350D02*
X1738500Y264350D01*
X1658500Y263350D02*
X1683500Y263350D01*
X1712500Y263350D02*
X1738500Y263350D01*
X1658500Y262350D02*
X1683500Y262350D01*
X1712500Y262350D02*
X1738500Y262350D01*
X1658500Y261350D02*
X1684500Y261350D01*
X1712500Y261350D02*
X1738500Y261350D01*
X1658500Y260350D02*
X1684500Y260350D01*
X1711500Y260350D02*
X1738500Y260350D01*
X1658500Y259350D02*
X1685500Y259350D01*
X1711500Y259350D02*
X1738500Y259350D01*
X1658500Y258350D02*
X1686500Y258350D01*
X1710500Y258350D02*
X1738500Y258350D01*
X1658500Y257350D02*
X1686500Y257350D01*
X1709500Y257350D02*
X1738500Y257350D01*
X1658500Y256350D02*
X1687500Y256350D01*
X1708500Y256350D02*
X1738500Y256350D01*
X1658500Y255350D02*
X1689500Y255350D01*
X1707500Y255350D02*
X1738500Y255350D01*
X1658500Y254350D02*
X1690500Y254350D01*
X1705500Y254350D02*
X1738500Y254350D01*
X1658500Y253350D02*
X1692500Y253350D01*
X1703500Y253350D02*
X1738500Y253350D01*
X1658500Y252350D02*
X1738500Y252350D01*
X1658500Y251350D02*
X1738500Y251350D01*
X1658500Y250350D02*
X1738500Y250350D01*
X1658500Y249350D02*
X1738500Y249350D01*
X1658500Y248350D02*
X1738500Y248350D01*
X1658500Y247350D02*
X1738500Y247350D01*
X1658500Y246350D02*
X1738500Y246350D01*
X1658500Y245350D02*
X1738500Y245350D01*
X1658500Y244350D02*
X1738500Y244350D01*
X1658500Y243350D02*
X1738500Y243350D01*
X1658500Y242350D02*
X1738500Y242350D01*
X1658500Y241350D02*
X1738500Y241350D01*
X1658500Y240350D02*
X1738500Y240350D01*
X1658500Y239350D02*
X1738500Y239350D01*
X1658500Y238350D02*
X1738500Y238350D01*
X1658500Y237350D02*
X1738500Y237350D01*
X1658500Y236350D02*
X1738500Y236350D01*
X1658500Y235350D02*
X1738500Y235350D01*
X1658500Y234350D02*
X1738500Y234350D01*
X1658500Y233350D02*
X1738500Y233350D01*
X1658500Y232350D02*
X1738500Y232350D01*
X1658500Y231350D02*
X1738500Y231350D01*
X1658500Y230350D02*
X1738500Y230350D01*
X1658500Y229350D02*
X1738500Y229350D01*
X1658500Y228350D02*
X1738500Y228350D01*
X1658500Y227350D02*
X1738500Y227350D01*
D02*
G04 End of Mask1*
M02*